<svg width="421" height="409" viewBox="0 0 421 409" fill="none" xmlns="http://www.w3.org/2000/svg">
<g filter="url(#filter0_d_2_773)">
<rect x="194.594" y="117.465" width="7.45577" height="7.45577" rx="3.72788" fill="url(#paint0_linear_2_773)"/>
</g>
<g filter="url(#filter1_d_2_773)">
<rect x="396.397" y="213.396" width="7.45577" height="7.45577" rx="3.72788" fill="url(#paint1_linear_2_773)"/>
</g>
<g filter="url(#filter2_d_2_773)">
<rect x="316.868" y="288.948" width="7.45577" height="7.45577" rx="3.72788" fill="url(#paint2_linear_2_773)"/>
</g>
<g filter="url(#filter3_d_2_773)">
<rect x="175.209" y="282.982" width="15.4086" height="15.4086" rx="7.70429" fill="url(#paint3_linear_2_773)"/>
</g>
<g filter="url(#filter4_d_2_773)">
<rect x="312.395" y="260.119" width="8.94692" height="8.94692" rx="4.47346" fill="url(#paint4_linear_2_773)"/>
</g>
<g filter="url(#filter5_d_2_773)">
<rect x="72.8165" y="259.621" width="8.94692" height="8.94692" rx="4.47346" fill="url(#paint5_linear_2_773)"/>
</g>
<g filter="url(#filter6_d_2_773)">
<rect x="265.175" y="300.38" width="4.47346" height="4.47346" rx="2.23673" fill="url(#paint6_linear_2_773)"/>
</g>
<path d="M224.648 45.8401C224.648 45.8401 180.784 47.2593 169.681 67.4819C158.869 87.1765 179.417 124.184 179.417 124.184C179.417 124.184 209.432 173.579 201.158 205.322C187.032 259.515 96.8731 203.526 64.6794 249.351C28.8267 300.384 84.2264 407.853 84.2264 407.853" stroke="#FFC819" stroke-width="0.580569"/>
<path d="M368.292 380.725C368.292 380.725 398.305 348.704 391.856 326.554C385.576 304.982 344.878 293.344 344.878 293.344C344.878 293.344 288.727 279.64 272.131 251.343C243.8 203.035 347.142 178.873 337.503 123.706C326.769 62.2684 211.603 25.4494 211.603 25.4494" stroke="#FCC822" stroke-width="0.870854"/>
<circle cx="274.122" cy="186.058" r="2.98231" fill="url(#paint7_linear_2_773)"/>
<circle cx="289.034" cy="204.788" r="2.98231" fill="url(#paint8_linear_2_773)"/>
<circle cx="298.478" cy="204.789" r="1.49115" fill="url(#paint9_linear_2_773)"/>
<circle cx="295.711" cy="211.466" r="1.49115" transform="rotate(45 295.711 211.466)" fill="url(#paint10_linear_2_773)"/>
<circle cx="288.873" cy="214.232" r="1.49115" transform="rotate(90 288.873 214.232)" fill="url(#paint11_linear_2_773)"/>
<circle cx="282.196" cy="211.467" r="1.49115" transform="rotate(135 282.196 211.467)" fill="url(#paint12_linear_2_773)"/>
<circle cx="279.59" cy="204.789" r="1.49115" fill="url(#paint13_linear_2_773)"/>
<circle cx="282.356" cy="198.111" r="1.49115" transform="rotate(45 282.356 198.111)" fill="url(#paint14_linear_2_773)"/>
<circle cx="288.873" cy="195.345" r="1.49115" transform="rotate(90 288.873 195.345)" fill="url(#paint15_linear_2_773)"/>
<circle cx="295.551" cy="198.11" r="1.49115" transform="rotate(135 295.551 198.11)" fill="url(#paint16_linear_2_773)"/>
<path d="M256.839 282.711L259.438 283.177C262.2 283.669 264.038 286.308 263.545 289.069L263.068 291.736C262.575 294.497 259.936 296.335 257.175 295.842L254.575 295.377C251.814 294.884 249.976 292.245 250.469 289.484L250.945 286.818C251.439 284.056 254.077 282.218 256.839 282.711ZM274.133 210.958C280.888 212.165 285.566 215.501 288.168 220.964C290.239 225.279 290.815 230.014 289.894 235.168C288.353 243.79 282.983 251.292 273.784 257.673C270.576 259.897 268.563 262.794 267.741 266.362C267.438 267.545 267.154 268.871 266.893 270.338C266.399 273.099 263.761 274.937 260.999 274.443L258.399 273.979C255.638 273.485 253.8 270.847 254.293 268.086V268.085C255.699 260.219 258.676 254.722 263.226 251.59C268.142 248.203 271.766 244.472 274.101 240.394C275.442 238.02 276.364 235.433 276.864 232.633C277.38 229.744 277.141 227.363 276.146 225.487C275.064 223.323 273.137 222.176 270.364 222.047C267.774 221.906 265.638 223.336 263.956 226.337C263.87 226.481 263.788 226.63 263.706 226.782C262.514 229 259.865 229.998 257.501 229.133L255.184 228.284C252.315 227.235 251.007 223.899 252.409 221.185C253.8 218.487 255.637 216.199 257.918 214.319C260.389 212.285 263.544 211.059 267.379 210.644C269.392 210.409 271.644 210.512 274.133 210.958Z" fill="#AEDBED"/>
<path d="M158.118 293.352L160.277 293.455C162.569 293.564 164.341 295.511 164.231 297.804L164.125 300.019C164.016 302.312 162.069 304.082 159.776 303.974L157.617 303.871C155.324 303.761 153.554 301.814 153.663 299.521L153.768 297.306C153.877 295.013 155.825 293.243 158.118 293.352ZM164.584 233.291C170.193 233.558 174.342 235.772 177.03 239.932C179.166 243.215 180.133 246.997 179.929 251.277C179.589 258.438 176.022 265.093 169.229 271.242C166.86 273.386 165.532 275.949 165.242 278.932C165.119 279.924 165.03 281.03 164.971 282.248C164.862 284.541 162.915 286.311 160.622 286.203L158.463 286.1C156.169 285.99 154.4 284.043 154.508 281.75C154.819 275.217 156.656 270.441 160.018 267.42C163.65 264.152 166.198 260.742 167.663 257.185C168.501 255.116 168.976 252.92 169.087 250.595C169.201 248.197 168.755 246.288 167.75 244.872C166.644 243.229 164.958 242.502 162.694 242.689C160.578 242.848 158.995 244.233 157.946 246.847C157.892 246.974 157.841 247.103 157.79 247.234C157.057 249.16 155.013 250.249 153.003 249.797L151.032 249.353C148.592 248.803 147.18 246.235 148.03 243.884C148.876 241.547 150.124 239.497 151.777 237.73C153.569 235.819 156 234.491 159.069 233.75C160.678 233.346 162.517 233.192 164.584 233.291Z" fill="#AEDBED"/>
<path d="M196.199 206.93L197.845 206.641C199.594 206.334 201.26 207.503 201.566 209.251L201.863 210.94C202.169 212.688 201.001 214.354 199.252 214.661L197.606 214.949C195.858 215.257 194.191 214.088 193.885 212.339L193.588 210.652C193.282 208.903 194.451 207.236 196.199 206.93ZM190.884 160.524C195.161 159.773 198.666 160.739 201.399 163.421C203.568 165.535 204.94 168.225 205.513 171.488C206.471 176.948 204.909 182.573 200.829 188.366C199.406 190.384 198.838 192.543 199.126 194.842C199.202 195.613 199.322 196.462 199.485 197.39C199.792 199.139 198.623 200.805 196.875 201.111L195.229 201.4C193.48 201.707 191.814 200.538 191.507 198.79C190.633 193.809 191.208 189.894 193.232 187.045C195.417 183.963 196.761 180.958 197.262 178.027C197.543 176.324 197.528 174.586 197.217 172.813C196.896 170.984 196.236 169.621 195.237 168.723C194.124 167.671 192.729 167.408 191.053 167.934C189.483 168.413 188.524 169.726 188.177 171.877C188.157 171.981 188.14 172.087 188.125 172.196C187.899 173.772 186.541 174.942 184.948 174.941L183.387 174.941C181.453 174.94 179.951 173.242 180.194 171.324C180.435 169.418 181.029 167.659 181.976 166.047C183.004 164.3 184.612 162.886 186.801 161.806C187.946 161.228 189.307 160.8 190.884 160.524Z" fill="#AEDBED"/>
<path d="M75.7397 256.527L76.8327 256.809C77.993 257.11 78.6897 258.294 78.3894 259.454L78.0991 260.574C77.7987 261.736 76.6144 262.432 75.454 262.132L74.361 261.849C73.2006 261.548 72.5039 260.365 72.8043 259.204L73.0946 258.083C73.3949 256.923 74.5793 256.226 75.7397 256.527ZM85.453 226.518C88.2916 227.254 90.1757 228.828 91.1062 231.241C91.8477 233.147 91.9383 235.183 91.3771 237.35C90.4389 240.973 87.9061 243.994 83.7778 246.412C82.3388 247.255 81.3859 248.423 80.9191 249.917C80.7511 250.411 80.587 250.966 80.4276 251.583C80.1272 252.743 78.9428 253.44 77.7825 253.139L76.6902 252.857C75.5299 252.556 74.8324 251.372 75.1328 250.212C75.9889 246.905 77.4372 244.661 79.4785 243.475C81.6831 242.192 83.3498 240.721 84.4776 239.06C85.1263 238.092 85.6039 237.02 85.9081 235.843C86.2224 234.63 86.1984 233.607 85.8354 232.775C85.446 231.818 84.6618 231.266 83.4844 231.121C82.386 230.975 81.4292 231.514 80.6141 232.739C80.5731 232.798 80.5328 232.859 80.4934 232.921C79.9128 233.826 78.7516 234.165 77.7724 233.72L76.8133 233.282C75.6251 232.74 75.1761 231.277 75.8627 230.167C76.5439 229.063 77.4009 228.148 78.4335 227.421C79.5536 226.635 80.9377 226.216 82.5857 226.164C83.4512 226.13 84.4072 226.248 85.453 226.518Z" fill="#AEDBED"/>
<path d="M118.671 261.315L122.044 260.449C125.627 259.528 129.276 261.687 130.197 265.27L131.085 268.729C132.005 272.312 129.846 275.962 126.264 276.882L122.89 277.748C119.308 278.668 115.658 276.509 114.737 272.927L113.849 269.467C112.929 265.884 115.088 262.234 118.671 261.315ZM100.129 165.769C108.893 163.518 116.331 164.959 122.443 170.088C127.291 174.13 130.574 179.495 132.291 186.183C135.164 197.37 132.829 209.308 125.288 222C122.659 226.425 121.829 231.002 122.797 235.732C123.081 237.318 123.467 239.063 123.956 240.966C124.876 244.549 122.717 248.199 119.135 249.118L115.761 249.984C112.179 250.905 108.528 248.747 107.609 245.164C104.988 234.957 105.55 226.731 109.292 220.484C113.335 213.73 115.64 207.269 116.207 201.099C116.517 197.516 116.205 193.908 115.272 190.276C114.31 186.529 112.719 183.803 110.499 182.098C108.017 180.094 105.076 179.773 101.678 181.137C98.4954 182.384 96.715 185.269 96.3403 189.791C96.3186 190.011 96.3 190.235 96.2853 190.462C96.0694 193.774 93.439 196.423 90.129 196.679L86.884 196.93C82.868 197.242 79.4728 193.957 79.6671 189.933C79.8607 185.935 80.8105 182.184 82.5166 178.681C84.3682 174.887 87.4816 171.69 91.8552 169.092C94.1419 167.707 96.8992 166.598 100.129 165.769Z" fill="#AEDBED"/>
<path d="M339.446 263.543L341.83 262.931C344.362 262.28 346.941 263.806 347.591 266.337L348.219 268.783C348.869 271.314 347.344 273.893 344.812 274.543L342.428 275.156C339.897 275.806 337.317 274.28 336.667 271.749L336.039 269.304C335.389 266.772 336.914 264.193 339.446 263.543ZM326.344 196.023C332.537 194.433 337.793 195.451 342.112 199.076C345.538 201.931 347.858 205.723 349.072 210.449C351.102 218.354 349.452 226.791 344.123 235.76C342.265 238.886 341.678 242.121 342.363 245.464C342.563 246.585 342.836 247.818 343.181 249.163C343.831 251.694 342.306 254.273 339.774 254.923L337.39 255.536C334.859 256.186 332.28 254.66 331.629 252.129C329.777 244.917 330.174 239.104 332.819 234.689C335.676 229.916 337.304 225.35 337.706 220.989C337.924 218.458 337.704 215.908 337.045 213.341C336.365 210.693 335.241 208.767 333.672 207.562C331.917 206.146 329.84 205.919 327.438 206.882C325.189 207.764 323.931 209.803 323.666 212.998C323.65 213.154 323.638 213.312 323.627 213.472C323.475 215.814 321.616 217.685 319.276 217.866L316.984 218.044C314.145 218.264 311.746 215.943 311.884 213.099C312.02 210.274 312.691 207.623 313.897 205.147C315.206 202.466 317.406 200.207 320.497 198.371C322.112 197.392 324.061 196.609 326.344 196.023Z" fill="#AEDBED"/>
<path d="M328.543 151.523L329.86 151.185C331.26 150.826 332.686 151.668 333.045 153.068L333.392 154.419C333.752 155.819 332.908 157.245 331.509 157.603L330.191 157.942C328.791 158.301 327.365 157.458 327.007 156.059L326.659 154.707C326.3 153.308 327.143 151.883 328.543 151.523ZM321.3 114.202C324.723 113.323 327.629 113.885 330.016 115.89C331.91 117.468 333.192 119.563 333.863 122.176C334.985 126.545 334.074 131.209 331.127 136.166C330.101 137.895 329.777 139.682 330.154 141.53C330.265 142.15 330.416 142.831 330.607 143.574C330.966 144.974 330.123 146.4 328.724 146.759L327.406 147.097C326.007 147.456 324.581 146.613 324.222 145.215C323.198 141.227 323.417 138.015 324.88 135.574C326.459 132.936 327.359 130.412 327.581 128.002C327.701 126.603 327.58 125.193 327.215 123.774C326.84 122.311 326.218 121.246 325.35 120.58C324.381 119.798 323.232 119.672 321.905 120.204C320.662 120.692 319.967 121.819 319.82 123.585C319.812 123.672 319.804 123.759 319.799 123.847C319.714 125.142 318.687 126.176 317.394 126.276L316.126 126.374C314.558 126.495 313.232 125.213 313.308 123.641C313.384 122.079 313.754 120.614 314.421 119.246C315.144 117.764 316.36 116.514 318.068 115.5C318.962 114.959 320.039 114.526 321.3 114.202Z" fill="#AEDBED"/>
<path d="M151.743 174.795C151.743 174.795 159.368 137.621 141.994 139.453L125.385 174.034C125.385 174.034 136.518 178.598 151.743 174.795Z" fill="#361710"/>
<path d="M113.033 174.795C113.033 174.795 108.807 144.65 121.92 137L139.391 174.034C139.391 174.034 128.259 178.598 113.033 174.795Z" fill="#361710"/>
<path d="M86.1171 166.459H88.1391C90.2864 166.459 92.0273 168.199 92.0273 170.346V172.42C92.0273 174.568 90.2864 176.308 88.1391 176.308H86.1171C83.9698 176.308 82.2296 174.568 82.2296 172.42V170.346C82.2296 168.199 83.9698 166.459 86.1171 166.459ZM89.4875 110.057C94.7397 110.057 98.7139 111.94 101.41 115.707C103.553 118.679 104.624 122.17 104.624 126.179C104.624 132.884 101.587 139.26 95.5154 145.308C93.3975 147.416 92.2704 149.87 92.1318 152.67C92.0622 153.602 92.0273 154.638 92.0273 155.779C92.0273 157.927 90.2864 159.667 88.1391 159.667H86.1171C83.9698 159.667 82.2296 157.927 82.2296 155.779C82.2296 149.662 83.7329 145.118 86.7395 142.146C89.9876 138.931 92.2162 135.631 93.4269 132.244C94.1174 130.274 94.4634 128.201 94.4634 126.023C94.4634 123.777 93.9625 122.015 92.9601 120.736C91.8539 119.251 90.2469 118.644 88.1391 118.921C86.169 119.163 84.7516 120.529 83.8885 123.016C83.8436 123.137 83.801 123.26 83.76 123.386C83.1609 125.218 81.2992 126.327 79.4011 125.994L77.5402 125.666C75.2365 125.261 73.8021 122.924 74.4926 120.69C75.1784 118.469 76.2544 116.498 77.719 114.773C79.309 112.908 81.5206 111.56 84.3553 110.731C85.8408 110.282 87.5507 110.057 89.4875 110.057Z" fill="#FCC822"/>
<path d="M134.491 319.171C134.491 319.171 133.528 322.889 131.797 322.328C128.562 321.283 128.373 319.171 128.373 319.171C128.373 319.171 126.332 325.323 126.721 328.253C127.11 331.183 126.721 337.771 126.721 337.771H129.674C129.674 337.771 132.436 338.107 133.581 339.772C134.727 341.437 141.001 340.943 142.989 339.875C145.537 338.507 138.85 331.546 136.485 327.667C134.119 323.788 134.491 319.171 134.491 319.171Z" fill="#1C0906"/>
<path d="M128.964 264.418C131.005 259.377 138.284 259.434 140.079 264.565C140.403 265.49 140.637 266.459 140.791 267.439C141.545 272.251 140.787 279.964 138.8 289.816C136.119 303.107 134.67 329.621 130.014 330.011C125.357 330.401 128.094 308.106 127.996 294.922C127.9 281.738 125.822 272.179 128.77 264.898L128.964 264.418Z" fill="#CF9166"/>
<path d="M131.643 302.449C131.006 285.058 132.163 272.157 129.389 262.987L129.207 262.384C127.286 256.037 121.416 257.167 120.244 264.192C120.034 265.458 119.898 266.768 119.826 268.083C119.48 274.535 120.509 284.591 122.647 297.287C125.533 314.417 126.234 330.173 130.014 330.011C133.792 329.849 132.28 319.841 131.643 302.449Z" fill="#EDAC7C"/>
<path d="M126.367 322.229C126.367 322.229 127.191 328.797 129.483 328.4C131.737 328.009 132.484 322.229 132.484 322.229C132.484 322.229 134.525 328.381 134.137 331.311C133.918 332.962 133.945 335.774 134.011 337.915C134.06 339.511 132.78 340.828 131.183 340.828C131.183 340.828 128.421 341.164 127.276 342.829C126.131 344.495 119.857 344.001 117.868 342.933C115.32 341.565 122.007 334.605 124.373 330.726C126.739 326.846 126.367 322.229 126.367 322.229Z" fill="#361710"/>
<path d="M145.901 222.571L131.117 219.894V219.791L130.834 219.843L130.55 219.791V219.894L115.766 222.571C115.766 222.571 110.538 230.358 111.561 239.518C112.584 248.677 117.299 298.214 117.299 298.214H142.749C142.749 298.214 149.083 248.677 150.106 239.518C151.129 230.358 145.901 222.571 145.901 222.571Z" fill="#195172"/>
<path d="M147.663 225.87C146.73 223.807 145.901 222.57 145.901 222.57L131.117 219.893V219.79L130.834 219.842L130.55 219.79V219.893L115.766 222.57C115.766 222.57 114.937 223.807 114.005 225.87H147.663Z" fill="#0D435E"/>
<path d="M134.013 298.213L134.186 248.726L138.424 298.213" fill="#0D435E"/>
<path d="M111.439 236.562C112.873 236.52 115.29 236.235 118.788 235.129C124.921 233.19 124.973 225.094 124.973 225.094L124.809 220.934L115.766 222.572C115.766 222.572 111.626 228.744 111.439 236.562Z" fill="#0D435E"/>
<path d="M150.229 236.563C150.042 228.744 145.902 222.571 145.902 222.571L136.236 220.821L135.989 225.093C135.989 225.093 136.041 233.189 142.174 235.128C146.331 236.444 148.962 236.599 150.229 236.563Z" fill="#0D435E"/>
<path d="M116.592 180.576L127.095 176.308L135.337 176.397L148.216 181.768C148.216 181.768 141.503 204.844 141.945 210.798C142.387 216.753 145.901 223.491 145.901 223.491H116.592C116.592 223.491 121.839 212.874 120.687 206.611C119.535 200.347 116.592 180.576 116.592 180.576Z" fill="#5C93BC"/>
<path d="M141.233 144.5C137.669 137.832 118.828 135.47 115.364 156.434C112.838 171.712 130.026 175.314 138.738 172.517C153.561 167.758 144.797 151.168 141.233 144.5Z" fill="#3E150D"/>
<path d="M144.3 158.683C144.3 158.683 146.963 155.263 149.415 157.51C151.867 159.758 148.363 166.685 143.667 165.056L144.3 158.683Z" fill="#EDAC7C"/>
<path d="M144.06 161.098L143.734 164.378C147.795 165.107 150.113 159.452 148.245 158.668C146.734 158.034 144.859 160.018 144.06 161.098Z" fill="#F7A588"/>
<path d="M148.9 159.839C148.9 159.839 148.892 159.814 148.88 159.767C148.867 159.72 148.845 159.654 148.818 159.57C148.757 159.408 148.653 159.172 148.454 159.003C148.404 158.961 148.346 158.927 148.287 158.898C148.256 158.885 148.225 158.87 148.191 158.859L148.168 158.852L148.167 158.851C148.184 158.857 148.17 158.853 148.174 158.854L148.17 158.853L148.161 158.851L148.146 158.847L148.081 158.829C148.035 158.815 148 158.811 147.965 158.805C147.932 158.799 147.895 158.794 147.852 158.791C147.813 158.789 147.773 158.787 147.733 158.787C147.691 158.787 147.65 158.786 147.608 158.791C147.275 158.815 146.922 158.945 146.586 159.125C146.415 159.212 146.252 159.319 146.091 159.425C145.933 159.534 145.776 159.646 145.628 159.759C145.333 159.987 145.065 160.217 144.833 160.415C144.369 160.825 144.061 161.098 144.061 161.098C144.061 161.098 144.1 161.001 144.187 160.84C144.275 160.681 144.408 160.456 144.593 160.203C144.686 160.078 144.788 159.941 144.908 159.805C145.026 159.669 145.158 159.529 145.302 159.392C145.59 159.119 145.929 158.849 146.319 158.641C146.514 158.538 146.721 158.449 146.937 158.389C147.153 158.328 147.381 158.296 147.603 158.304C147.658 158.305 147.712 158.31 147.768 158.318C147.822 158.321 147.875 158.333 147.927 158.345C147.979 158.355 148.032 158.37 148.085 158.388C148.14 158.405 148.191 158.422 148.227 158.441L148.288 158.47L148.327 158.488L148.362 158.506C148.407 158.53 148.449 158.559 148.489 158.589C148.568 158.651 148.636 158.719 148.69 158.791C148.802 158.932 148.857 159.084 148.889 159.215C148.922 159.345 148.926 159.461 148.928 159.552C148.928 159.644 148.917 159.718 148.911 159.766C148.904 159.815 148.9 159.839 148.9 159.839Z" fill="#CF9166"/>
<path d="M119.604 158.416C119.604 158.416 117.015 154.94 114.516 157.134C112.015 159.327 115.37 166.329 120.1 164.801L119.604 158.416Z" fill="#EDAC7C"/>
<path d="M119.792 160.837L120.047 164.123C115.972 164.766 113.776 159.062 115.661 158.318C117.184 157.717 119.017 159.74 119.792 160.837Z" fill="#F7A588"/>
<path d="M114.982 159.475C114.982 159.475 114.989 159.451 115.003 159.403C115.017 159.356 115.04 159.29 115.069 159.207C115.132 159.045 115.241 158.813 115.446 158.648C115.495 158.607 115.552 158.574 115.614 158.546C115.646 158.535 115.676 158.52 115.709 158.511L115.735 158.503L115.737 158.502C115.717 158.509 115.733 158.503 115.729 158.505H115.733L115.741 158.501L115.756 158.498L115.822 158.482C115.867 158.469 115.903 158.465 115.938 158.46C115.972 158.454 116.01 158.451 116.052 158.45C116.091 158.447 116.13 158.446 116.171 158.448C116.212 158.448 116.253 158.449 116.295 158.455C116.627 158.484 116.978 158.621 117.31 158.81C117.478 158.902 117.64 159.01 117.799 159.121C117.954 159.233 118.108 159.348 118.254 159.465C118.544 159.7 118.807 159.935 119.036 160.137C119.49 160.557 119.792 160.837 119.792 160.837C119.792 160.837 119.754 160.739 119.671 160.577C119.588 160.416 119.459 160.187 119.279 159.93C119.189 159.804 119.088 159.664 118.972 159.526C118.856 159.388 118.73 159.245 118.588 159.104C118.306 158.826 117.974 158.549 117.588 158.331C117.396 158.226 117.19 158.132 116.974 158.067C116.759 158.001 116.533 157.964 116.312 157.967C116.255 157.967 116.201 157.972 116.146 157.977C116.091 157.98 116.039 157.989 115.984 158.001C115.934 158.009 115.881 158.023 115.826 158.041C115.772 158.057 115.721 158.073 115.684 158.092L115.623 158.118L115.584 158.135L115.549 158.153C115.502 158.176 115.459 158.204 115.418 158.233C115.34 158.294 115.27 158.36 115.213 158.43C115.099 158.57 115.041 158.721 115.006 158.849C114.97 158.979 114.963 159.094 114.96 159.187C114.958 159.28 114.966 159.353 114.972 159.401C114.978 159.449 114.982 159.475 114.982 159.475Z" fill="#CF9166"/>
<path d="M134.787 169.203L128.101 169.129C128.101 169.129 127.731 179.596 127.706 179.596C127.706 179.596 128.175 181.689 131.14 181.767C134.106 181.844 134.861 179.672 134.861 179.672C134.837 179.614 134.787 169.203 134.787 169.203Z" fill="#EDAC7C"/>
<path d="M134.861 173.055L127.891 172.822C127.891 172.822 127.852 176.674 127.827 176.674C127.827 176.674 128.202 179.122 131.168 179.2C134.134 179.278 134.832 177.029 134.832 177.029C134.809 176.971 134.861 173.055 134.861 173.055Z" fill="#CF9166"/>
<path d="M134.766 171.127L128.08 171.055C128.08 171.055 127.981 172.391 127.892 173.528C127.878 173.692 129.796 174.004 130.004 174.039C131.638 174.316 133.252 174.123 134.849 173.735C134.809 172.57 134.766 171.127 134.766 171.127Z" fill="#CF9166"/>
<path d="M147.71 155.959C147.62 164.296 140.313 170.977 131.39 170.881C122.467 170.785 115.307 163.947 115.396 155.61C115.486 147.272 122.792 140.591 131.716 140.687C140.638 140.783 147.8 147.62 147.71 155.959Z" fill="#3E150D"/>
<path d="M145.994 155.735C145.882 151.089 143.932 146.682 139.362 144.83C137.038 143.887 134.478 143.615 131.98 143.629C129.513 143.643 126.884 143.774 124.555 144.643C120.384 146.201 119.251 143.658 118.783 147.896C118.737 148.311 118.185 150.086 117.62 155.43C117.519 156.382 117.493 157.328 117.517 158.289C117.575 160.449 117.894 162.618 118.577 164.675C119.404 167.172 120.805 169.496 122.861 171.203C124.029 172.173 125.377 172.921 126.81 173.444C129.174 174.306 131.432 174.607 133.92 174.177C135.606 173.886 137.252 173.353 138.738 172.518C141.205 171.132 143.064 168.957 144.237 166.432C145.224 164.307 145.751 161.989 145.961 159.669C146.075 158.399 146.114 157.107 146.003 155.837C146 155.803 145.995 155.769 145.994 155.735Z" fill="#EDAC7C"/>
<path d="M136.124 160.13C136.058 161.449 136.988 162.566 138.199 162.625C139.412 162.685 140.447 161.662 140.513 160.343C140.579 159.024 139.651 157.907 138.438 157.848C137.226 157.788 136.19 158.811 136.124 160.13Z" fill="#CF9166"/>
<path d="M136.152 159.572C136.085 160.892 137.015 162.008 138.226 162.068C139.439 162.128 140.474 161.105 140.54 159.786C140.607 158.467 139.678 157.349 138.465 157.29C137.254 157.232 136.217 158.253 136.152 159.572Z" fill="black"/>
<path d="M136.937 158.961C136.913 159.439 137.289 159.846 137.774 159.869C138.261 159.893 138.674 159.526 138.698 159.047C138.722 158.57 138.347 158.164 137.862 158.14C137.375 158.115 136.961 158.484 136.937 158.961Z" fill="white"/>
<path d="M123.036 159.615C122.971 160.934 123.9 162.051 125.111 162.11C126.324 162.17 127.359 161.147 127.425 159.828C127.491 158.509 126.563 157.391 125.35 157.333C124.14 157.275 123.102 158.295 123.036 159.615Z" fill="#CF9166"/>
<path d="M123.065 159.056C122.998 160.376 123.929 161.492 125.139 161.553C126.352 161.612 127.387 160.591 127.453 159.27C127.52 157.952 126.591 156.833 125.379 156.775C124.168 156.716 123.131 157.738 123.065 159.056Z" fill="black"/>
<path d="M123.85 158.446C123.827 158.924 124.2 159.331 124.687 159.354C125.173 159.378 125.587 159.011 125.611 158.531C125.635 158.054 125.261 157.647 124.773 157.624C124.288 157.6 123.874 157.968 123.85 158.446Z" fill="white"/>
<path d="M130.77 158.16C130.77 158.16 131.092 161.065 129.724 160.823C127.077 160.36 127.07 166.033 131.067 163.921C132.576 163.124 132.079 158.2 132.079 158.2L130.77 158.16Z" fill="#F48470"/>
<path d="M127.965 166.476C127.965 166.476 133.291 167.362 135.823 164.31C135.823 164.31 137.951 170.012 132.232 170.744C128.619 171.204 127.965 166.476 127.965 166.476Z" fill="#B43128"/>
<path d="M129.776 170.072C130.381 170.571 131.181 170.877 132.231 170.744C133.529 170.576 134.42 170.155 135.028 169.603C135.202 169.437 135.357 169.259 135.498 169.074C135.502 169.07 135.505 169.065 135.507 169.062C135.51 169.058 135.51 169.057 135.512 169.055C135.948 168.438 136.135 167.732 136.191 167.055C132.977 166.214 130.673 168.727 129.776 170.072Z" fill="#F05736"/>
<path d="M127.965 166.476C127.965 166.476 127.972 166.517 127.983 166.589C128.502 166.696 129.462 167.823 130.754 167.778C131.571 167.751 132.373 167.525 133.108 167.179C133.565 166.964 134.035 166.758 134.43 166.441C134.733 166.2 134.95 165.484 135.078 165.041C132.377 167.209 127.966 166.476 127.965 166.476Z" fill="white"/>
<path d="M128.321 166.811C128.552 167.878 129.443 170.812 132.195 170.46C133.72 170.266 134.792 169.684 135.38 168.734C136.192 167.421 135.902 165.698 135.692 164.879C133.404 167.149 129.576 166.948 128.321 166.811ZM131.701 171.058C128.343 171.023 127.685 166.563 127.679 166.514C127.666 166.426 127.697 166.336 127.764 166.273C127.83 166.21 127.922 166.181 128.014 166.196C128.065 166.204 133.206 167.018 135.598 164.13C135.664 164.052 135.768 164.012 135.871 164.03C135.974 164.047 136.059 164.116 136.095 164.213C136.137 164.325 137.117 167.015 135.877 169.027C135.193 170.133 133.98 170.807 132.27 171.025C132.071 171.051 131.883 171.061 131.701 171.058Z" fill="#F05B4E"/>
<path d="M125.892 166.165C125.879 167.382 124.865 168.359 123.627 168.345C122.388 168.331 121.393 167.334 121.406 166.116C121.42 164.898 122.434 163.923 123.673 163.935C124.911 163.95 125.905 164.947 125.892 166.165Z" fill="#F49B77"/>
<path d="M141.994 164.921C141.981 166.138 140.966 167.115 139.726 167.101C138.489 167.088 137.495 166.091 137.508 164.873C137.521 163.656 138.536 162.68 139.774 162.693C141.013 162.707 142.007 163.705 141.994 164.921Z" fill="#F49B77"/>
<path d="M121.526 153.59C121.526 153.59 121.576 153.499 121.692 153.357C121.751 153.289 121.822 153.2 121.915 153.115C122.005 153.024 122.112 152.93 122.237 152.832C122.361 152.735 122.501 152.638 122.655 152.543C122.811 152.453 122.977 152.355 123.16 152.279C123.337 152.191 123.53 152.124 123.729 152.058C123.927 151.99 124.136 151.952 124.341 151.898C124.549 151.866 124.76 151.834 124.966 151.814C125.173 151.802 125.378 151.797 125.573 151.798C125.771 151.809 125.961 151.826 126.139 151.843C126.32 151.864 126.485 151.905 126.638 151.935C126.79 151.97 126.929 151.999 127.05 152.046C127.169 152.087 127.274 152.127 127.358 152.159C127.526 152.224 127.621 152.271 127.621 152.271C127.621 152.271 127.514 152.285 127.334 152.298C127.245 152.305 127.136 152.314 127.013 152.317C126.892 152.318 126.753 152.334 126.603 152.347C126.454 152.36 126.294 152.36 126.126 152.378C125.957 152.397 125.782 152.414 125.6 152.427C125.42 152.451 125.236 152.479 125.045 152.5C124.86 152.532 124.672 152.563 124.482 152.597C124.387 152.617 124.295 152.638 124.202 152.658C124.107 152.678 124.014 152.693 123.925 152.721C123.833 152.745 123.742 152.768 123.652 152.789C123.561 152.81 123.478 152.843 123.39 152.866C123.215 152.913 123.051 152.971 122.891 153.023C122.811 153.047 122.737 153.081 122.663 153.106C122.588 153.133 122.515 153.156 122.448 153.187C122.311 153.24 122.184 153.29 122.074 153.339C121.959 153.385 121.864 153.432 121.78 153.468C121.704 153.507 121.636 153.533 121.594 153.557C121.55 153.578 121.526 153.59 121.526 153.59Z" fill="black"/>
<path d="M140.613 156.777C140.613 156.777 140.552 156.692 140.42 156.567C140.351 156.507 140.271 156.428 140.169 156.353C140.067 156.277 139.947 156.197 139.813 156.116C139.678 156.035 139.526 155.957 139.361 155.884C139.193 155.813 139.017 155.738 138.826 155.686C138.638 155.622 138.438 155.579 138.234 155.539C138.029 155.497 137.817 155.486 137.607 155.461C137.394 155.454 137.184 155.449 136.976 155.456C136.768 155.471 136.565 155.492 136.369 155.517C136.175 155.554 135.989 155.595 135.814 155.634C135.64 155.678 135.481 155.74 135.333 155.791C135.186 155.844 135.051 155.891 134.939 155.952C134.824 156.008 134.727 156.062 134.648 156.105C134.487 156.192 134.401 156.248 134.401 156.248C134.401 156.248 134.509 156.25 134.688 156.24C134.777 156.235 134.886 156.23 135.009 156.218C135.13 156.203 135.269 156.201 135.42 156.193C135.568 156.188 135.727 156.168 135.898 156.164C136.067 156.161 136.243 156.156 136.424 156.146C136.606 156.148 136.794 156.151 136.984 156.146C137.173 156.153 137.363 156.162 137.556 156.17C137.651 156.178 137.747 156.186 137.842 156.194C137.936 156.202 138.031 156.206 138.125 156.222C138.218 156.236 138.311 156.245 138.403 156.255C138.496 156.264 138.585 156.285 138.673 156.298C138.854 156.322 139.023 156.359 139.189 156.39C139.272 156.402 139.347 156.427 139.425 156.442C139.502 156.459 139.579 156.473 139.649 156.494C139.791 156.531 139.924 156.563 140.04 156.597C140.159 156.629 140.259 156.663 140.344 156.688C140.427 156.717 140.498 156.734 140.543 156.752C140.588 156.768 140.613 156.777 140.613 156.777Z" fill="black"/>
<path d="M145.802 162.668C145.802 162.668 146.155 162.019 146.825 160.78C149.333 156.141 150.392 150.697 149.039 145.601C148.311 142.86 146.813 141.528 145.593 140.881C144.343 140.22 138.658 136.63 135.245 135.593C129.086 133.722 122.526 135.67 117.917 138.87C113.308 142.07 107.296 152.554 112.281 152.662C117.266 152.77 124.844 145.757 122.592 147.565C119.369 150.153 122.524 150.427 129.738 150.674C136.951 150.92 141.228 148.411 141.228 148.411C141.228 148.411 140.956 150.618 142.019 153.889C143.081 157.16 146.029 160.886 146.029 160.886" fill="#361710"/>
<path d="M123.219 177.884L124.973 222.465C124.973 222.465 124.921 230.561 118.788 232.501C112.655 234.441 109.833 233.859 109.833 233.859C109.833 233.859 116.5 205.123 115.163 198.688C113.826 192.253 111.778 181.971 111.778 181.971L123.219 177.884Z" fill="#122738"/>
<path d="M138.574 177.765L135.99 222.465C135.99 222.465 136.042 230.561 142.175 232.501C148.308 234.441 151.129 233.859 151.129 233.859C151.129 233.859 144.462 205.123 145.799 198.688C147.137 192.253 149.185 181.972 149.185 181.972L138.574 177.765Z" fill="#122738"/>
<path d="M156.07 190.53C156.07 190.53 168.444 205.182 168.467 209.792C168.488 214.402 161.997 212.947 161.997 212.947L150.269 196.207L156.07 190.53Z" fill="#EDAC7C"/>
<path d="M156.07 190.53L150.269 196.206L154.931 202.861C154.931 202.861 157.696 198.738 162.706 199.048C159.468 194.555 156.07 190.53 156.07 190.53Z" fill="#CF9166"/>
<path d="M111.065 191.922C111.065 191.922 94.5327 201.643 89.9857 200.886C85.4379 200.129 87.9692 193.976 87.9692 193.976L106.451 185.246L111.065 191.922Z" fill="#EDAC7C"/>
<path d="M97.3644 198.942C103.634 196.29 111.065 191.923 111.065 191.923L106.451 185.246L97.3597 189.54C97.3597 189.54 100.731 196.871 97.3644 198.942" fill="#CF9166"/>
<path d="M165.671 213.034C165.704 213.015 165.737 212.995 165.771 212.975C167.072 212.188 168.03 210.916 168.685 209.541C170.079 206.617 170.816 203.228 171.877 200.16C172.702 197.769 173.451 195.192 174.462 192.787C174.307 192.716 174.162 192.626 174.033 192.504C172.747 191.3 172.114 190.484 170.634 189.527C170.21 193.22 165.027 200.471 162.863 206.233C162.436 207.372 162.064 208.551 162.022 209.766C161.944 212.052 163.187 214.47 165.671 213.034Z" fill="#EEC9B1"/>
<path d="M162.923 213.984C163.568 214.371 164.641 214.655 166.116 213.805L166.231 213.736C167.555 212.935 168.681 211.616 169.488 209.924C170.432 207.945 171.08 205.771 171.708 203.669C172.027 202.597 172.358 201.49 172.717 200.451C172.969 199.722 173.214 198.975 173.461 198.221C174.017 196.526 174.592 194.774 175.282 193.131L175.617 192.332L174.828 191.975C174.751 191.94 174.69 191.902 174.641 191.855C174.3 191.536 174.006 191.244 173.729 190.971C172.948 190.197 172.275 189.528 171.117 188.78L169.914 188.002L169.75 189.425C169.532 191.326 167.825 194.464 166.019 197.787C164.535 200.514 163.002 203.333 162.031 205.921C161.613 207.033 161.179 208.356 161.133 209.736C161.068 211.626 161.771 213.292 162.923 213.984Z" fill="#EDAC7C"/>
<path d="M173.553 190.323C173.554 190.317 174.537 187.351 174.915 187.236C175.295 187.12 175.969 187.39 175.969 187.39L174.832 191.643C174.832 191.643 176.416 188.082 177.035 187.777C177.652 187.47 178.342 187.794 178.342 187.794L176.453 192.691C176.453 192.691 177.57 189.154 178.231 188.597C178.892 188.042 179.674 188.278 179.674 188.278L178.08 193.56L177.937 192.892C177.937 192.892 179.026 191.021 179.694 190.879C180.36 190.735 181.002 190.896 181.002 190.896C181.002 190.896 179.803 192.799 179.286 194.022C178.769 195.245 177.83 195.471 177.83 195.471C175.727 194.827 173.934 193.257 172.204 191.914C170.868 190.875 169.914 188.001 169.914 188.001C169.914 188.001 171.728 186.323 173.553 190.323Z" fill="#EDAC7C"/>
<path d="M88.418 199.048C88.3933 199.018 88.3685 198.989 88.3445 198.959C87.39 197.774 86.9233 196.253 86.7762 194.736C86.4642 191.512 86.9271 188.075 86.9774 184.828C87.0169 182.3 87.1926 179.621 87.0634 177.016C87.2321 177.002 87.4009 176.967 87.5634 176.897C89.1828 176.204 90.056 175.652 91.7737 175.258C90.9122 178.874 93.3095 187.458 93.3776 193.613C93.3908 194.83 93.3382 196.064 92.9627 197.222C92.256 199.397 90.2627 201.247 88.418 199.048Z" fill="#EEC9B1"/>
<path d="M90.6765 200.878C89.938 201.022 88.8334 200.924 87.7365 199.62L87.6514 199.516C86.6799 198.312 86.0715 196.688 85.8903 194.821C85.679 192.639 85.8114 190.375 85.9391 188.185C86.0041 187.069 86.0715 185.915 86.0885 184.815C86.1001 184.044 86.1249 183.258 86.1496 182.466C86.2054 180.682 86.2627 178.839 86.1752 177.059L86.1318 176.193L86.9957 176.128C87.0801 176.122 87.1505 176.106 87.2132 176.079C87.6429 175.896 88.0175 175.722 88.3713 175.559C89.3691 175.097 90.2306 174.699 91.5745 174.391L92.9709 174.069L92.6396 175.464C92.1953 177.324 92.7294 180.857 93.2937 184.597C93.7574 187.666 94.2366 190.84 94.2675 193.604C94.2807 194.792 94.2366 196.182 93.8093 197.496C93.2248 199.294 91.9956 200.621 90.6765 200.878Z" fill="#EDAC7C"/>
<path d="M88.7583 175.01C88.7583 175.004 88.8481 171.881 88.5314 171.643C88.2133 171.406 87.488 171.428 87.488 171.428L87.1048 175.815C87.1048 175.815 86.8315 171.927 86.3547 171.429C85.8786 170.93 85.1193 170.998 85.1193 170.998L85.2238 176.247C85.2238 176.247 85.3809 172.54 84.9497 171.793C84.5186 171.045 83.7027 170.999 83.7027 170.999L83.3992 176.508L83.7615 175.929C83.7615 175.929 83.3752 173.8 82.797 173.437C82.2187 173.074 81.5615 173.006 81.5615 173.006C81.5615 173.006 82.0384 175.206 82.1073 176.532C82.1762 177.858 82.9804 178.389 82.9804 178.389C85.1781 178.502 87.3997 177.638 89.4836 176.965C91.0945 176.446 92.9709 174.069 92.9709 174.069C92.9709 174.069 91.8391 171.873 88.7583 175.01Z" fill="#EDAC7C"/>
<path d="M149.185 181.971C149.185 181.971 159.261 190.025 161.664 194.74L151.071 202.387L143.054 190.531L149.185 181.971Z" fill="#122738"/>
<path d="M111.779 181.97C111.779 181.97 103.113 186.217 97.9358 188.965L102.605 200.395L117.403 194.939L111.779 181.97Z" fill="#122738"/>
<path d="M131.975 339.299C130.542 339.599 128.331 338.762 126.671 341.33C125.072 343.806 121.312 343.767 121.041 343.762C123.553 344.084 126.523 343.926 127.276 342.83C128.421 341.165 131.183 340.829 131.183 340.829C132.78 340.829 134.06 339.511 134.011 337.916C134.008 337.823 134.006 337.721 134.003 337.625C133.487 338.333 132.749 339.138 131.975 339.299Z" fill="#1C0906"/>
<path d="M283.703 140.517L284.895 140.939C286.162 141.387 286.824 142.778 286.376 144.044L285.943 145.267C285.494 146.533 284.104 147.196 282.838 146.747L281.646 146.325C280.38 145.876 279.717 144.486 280.166 143.22L280.598 141.997C281.046 140.731 282.437 140.068 283.703 140.517ZM297.471 107.961C300.569 109.058 302.519 111 303.322 113.784C303.964 115.985 303.868 118.267 303.03 120.631C301.63 124.584 298.507 127.71 293.663 130.008C291.974 130.809 290.796 132.019 290.13 133.642C289.894 134.178 289.657 134.781 289.418 135.454C288.97 136.72 287.58 137.383 286.314 136.935L285.122 136.512C283.856 136.064 283.192 134.674 283.641 133.407C284.918 129.8 286.755 127.435 289.149 126.31C291.735 125.093 293.739 123.613 295.16 121.868C295.979 120.851 296.617 119.7 297.071 118.416C297.54 117.092 297.613 115.948 297.289 114.985C296.946 113.877 296.126 113.184 294.825 112.907C293.613 112.638 292.492 113.148 291.463 114.434C291.412 114.496 291.36 114.56 291.31 114.626C290.574 115.58 289.245 115.846 288.195 115.252L287.166 114.67C285.892 113.951 285.535 112.273 286.409 111.1C287.276 109.934 288.323 108.996 289.547 108.285C290.874 107.516 292.46 107.183 294.304 107.286C295.274 107.333 296.33 107.557 297.471 107.961Z" fill="#FCC822"/>
<path d="M200.433 144.114L202.176 144.455C204.027 144.817 205.234 146.612 204.872 148.462L204.522 150.251C204.16 152.101 202.365 153.308 200.515 152.946L198.771 152.605C196.92 152.243 195.714 150.449 196.076 148.598L196.426 146.81C196.788 144.959 198.582 143.751 200.433 144.114ZM212.854 96.0595C217.382 96.9459 220.491 99.2403 222.179 102.942C223.524 105.867 223.86 109.057 223.183 112.512C222.052 118.293 218.358 123.277 212.104 127.466C209.922 128.927 208.536 130.851 207.944 133.241C207.727 134.034 207.522 134.922 207.33 135.905C206.967 137.756 205.173 138.964 203.321 138.601L201.579 138.26C199.727 137.898 198.521 136.103 198.883 134.252C199.915 128.979 201.978 125.315 205.072 123.26C208.413 121.037 210.892 118.568 212.507 115.852C213.435 114.27 214.083 112.541 214.45 110.664C214.829 108.728 214.694 107.124 214.046 105.852C213.343 104.385 212.06 103.591 210.196 103.475C208.457 103.351 207.005 104.288 205.84 106.288C205.782 106.384 205.724 106.483 205.668 106.585C204.842 108.063 203.05 108.704 201.47 108.097L199.921 107.501C198.003 106.763 197.16 104.506 198.133 102.697C199.099 100.898 200.359 99.3796 201.913 98.1411C203.598 96.8003 205.732 96.0115 208.316 95.7747C209.672 95.6384 211.185 95.7329 212.854 96.0595Z" fill="#FCC822"/>
<path d="M172.331 175.065L173.556 174.75C174.856 174.416 176.182 175.2 176.516 176.501L176.839 177.758C177.173 179.058 176.389 180.384 175.088 180.718L173.863 181.033C172.562 181.367 171.236 180.583 170.902 179.281L170.58 178.025C170.245 176.724 171.029 175.399 172.331 175.065ZM165.597 140.365C168.78 139.547 171.481 140.07 173.701 141.933C175.461 143.401 176.653 145.349 177.277 147.779C178.321 151.841 177.473 156.178 174.734 160.787C173.779 162.394 173.477 164.056 173.829 165.773C173.932 166.349 174.072 166.983 174.25 167.674C174.584 168.976 173.8 170.301 172.499 170.635L171.274 170.95C169.973 171.283 168.647 170.5 168.313 169.199C167.362 165.492 167.565 162.504 168.925 160.236C170.393 157.783 171.23 155.437 171.436 153.196C171.548 151.895 171.435 150.584 171.097 149.265C170.747 147.904 170.169 146.914 169.363 146.295C168.461 145.567 167.393 145.45 166.159 145.946C165.003 146.399 164.357 147.447 164.22 149.089C164.213 149.169 164.206 149.25 164.2 149.332C164.122 150.536 163.167 151.498 161.965 151.59L160.787 151.682C159.327 151.794 158.095 150.602 158.165 149.14C158.236 147.689 158.58 146.327 159.2 145.054C159.873 143.676 161.003 142.515 162.592 141.571C163.422 141.068 164.423 140.666 165.597 140.365Z" fill="#FCC822"/>
<path d="M359.899 175.23L361.125 174.916C362.425 174.581 363.751 175.365 364.085 176.666L364.408 177.923C364.742 179.224 363.958 180.55 362.658 180.884L361.431 181.198C360.131 181.533 358.805 180.749 358.471 179.447L358.148 178.191C357.814 176.89 358.598 175.564 359.899 175.23ZM353.166 140.531C356.349 139.713 359.049 140.236 361.27 142.099C363.03 143.567 364.222 145.515 364.846 147.944C365.889 152.007 365.042 156.344 362.303 160.953C361.348 162.56 361.046 164.221 361.398 165.939C361.501 166.515 361.641 167.149 361.818 167.84C362.153 169.141 361.369 170.467 360.068 170.801L358.843 171.116C357.542 171.449 356.216 170.666 355.882 169.365C354.931 165.658 355.134 162.67 356.493 160.402C357.962 157.949 358.799 155.603 359.005 153.361C359.117 152.06 359.004 150.75 358.666 149.431C358.316 148.069 357.738 147.08 356.932 146.461C356.03 145.733 354.962 145.616 353.728 146.112C352.573 146.565 351.926 147.612 351.789 149.255C351.782 149.334 351.775 149.416 351.77 149.498C351.691 150.701 350.736 151.664 349.534 151.756L348.355 151.848C346.897 151.96 345.664 150.767 345.734 149.306C345.805 147.854 346.149 146.492 346.769 145.219C347.442 143.841 348.572 142.681 350.161 141.737C350.991 141.234 351.993 140.832 353.166 140.531Z" fill="#FCC822"/>
<path d="M221.16 221.204L226.323 199.397L216.933 199.043L212 219.172C211.652 220.593 211.733 222.085 212.232 223.459L221.206 248.153L231.954 247.116L221.16 221.204Z" fill="#A7A6BB"/>
<path d="M216.914 218.292C217.872 216.367 218.801 214.646 219.702 213.129C220.949 210.904 222.526 209.016 224.417 207.449L226.324 199.397L216.933 199.043L212 219.172C211.757 220.165 211.736 221.19 211.908 222.188C214.005 221.729 215.884 220.365 216.914 218.292Z" fill="#727293"/>
<path d="M230.309 293.141L230.081 294.201L228.88 299.77L223.567 324.422L222.988 327.1L222.858 327.704L221.789 339.412L220.531 339.793C217.335 340.764 214.071 340.554 211.222 339.385C210.056 338.907 208.867 337.742 208.038 336.816C207.099 335.767 206.339 334.563 205.751 333.285C204.061 329.61 203.67 325.424 203.582 321.429C203.552 320.078 203.559 318.727 203.559 317.375V304.129V292.547V288.339C204.536 288.339 205.631 288.217 206.414 288.164C207.12 288.118 208.387 287.882 209.113 287.882C211.96 286.905 214.896 287.172 217.644 286.838C218.949 286.679 220.213 286.603 221.402 286.554C223.059 286.488 224.574 286.587 225.866 286.907C228.578 287.582 230.309 289.363 230.309 293.141Z" fill="#1C1B2D"/>
<path d="M251.625 329.895L223.356 338.938L221.789 339.413L220.531 339.793C217.335 340.764 214.071 340.555 211.222 339.386C210.48 338.968 209.779 338.482 209.129 337.936C209.125 337.933 209.122 337.928 209.118 337.923C206.928 335.902 205.397 333.17 204.869 330.09L221.228 325.13L223.566 324.423L247.87 317.511L251.625 329.895Z" fill="#1C1B2D"/>
<path d="M266.597 331.935C266.233 330.358 265.598 328.406 265.457 327.79C264.918 325.426 264.119 323.119 263.44 320.793C263.191 319.942 262.888 319.354 262.784 319.168C262.731 319.082 262.739 319.087 262.784 319.168C262.859 319.292 263.058 319.598 263.445 320.129C262.736 319.158 262.166 318.244 261.696 317.142C261.166 315.899 260.759 314.654 260.453 313.415L242.977 318.634L246.934 331.887L255.133 329.439C255.639 329.288 256.172 329.575 256.323 330.08L257.167 332.908C257.428 333.784 257.805 334.592 258.26 335.338C258.735 335.172 259.22 335.034 259.717 334.927C261.883 334.46 263.949 333.693 266.023 332.951C266.2 332.605 266.388 332.266 266.597 331.935Z" fill="#361710"/>
<path d="M250.492 320.677C252.027 320.218 253.644 321.092 254.104 322.627C254.562 324.163 253.689 325.78 252.153 326.239C250.617 326.698 249 325.824 248.541 324.289C248.083 322.753 248.956 321.136 250.492 320.677Z" fill="white"/>
<path d="M257.242 333.139C258.976 338.491 264.673 341.506 270.091 339.888C270.596 339.736 270.884 339.204 270.733 338.699L268.104 329.896L257.242 333.139Z" fill="white"/>
<path d="M266.551 340.308C267.715 340.371 268.91 340.24 270.091 339.887C270.597 339.737 270.884 339.204 270.734 338.698L263.233 313.583C263.082 313.077 262.55 312.789 262.044 312.941L258.679 313.945L266.551 340.308Z" fill="white"/>
<path d="M251.335 250.668L249.811 253.788L241.828 270.14L228.689 297.053L203.905 287.016L211.494 269.762L216.936 257.393L225.27 238.444L251.335 250.668Z" fill="#A7A6BB"/>
<path d="M246.886 256.028C246.609 256.028 246.086 255.649 245.46 255.119C244.096 262.287 237.078 267.904 229.79 267.904C223.585 267.904 218.509 264.368 215.863 259.317L210.391 272.27L216.188 281.097C217.417 282.92 219.822 283.532 221.774 282.515L240.724 272.649L248.708 256.299C248.122 256.12 247.506 256.028 246.886 256.028Z" fill="#727293"/>
<path d="M238.782 259.963C237.347 259.963 235.981 259.756 234.682 259.403L218.776 291.982L204.3 286.119L203.906 287.016L228.688 297.054L248.463 256.55C245.689 258.675 242.268 259.963 238.782 259.963Z" fill="#727293"/>
<path d="M256.129 228.897C256.129 228.897 259.975 226.657 261.452 229.737C262.929 232.816 256.94 238.075 253.089 234.727L256.129 228.897Z" fill="#EDAC7C"/>
<path d="M254.977 231.107L253.411 234.108C257.002 236.356 261.374 231.854 259.893 230.393C258.697 229.211 256.151 230.384 254.977 231.107Z" fill="#F7A588"/>
<path d="M260.069 231.759C260.069 231.759 260.071 231.732 260.077 231.681C260.084 231.632 260.087 231.56 260.094 231.471C260.099 231.293 260.089 231.029 259.964 230.792C259.933 230.732 259.891 230.678 259.845 230.628C259.82 230.603 259.797 230.578 259.769 230.554L259.749 230.537L259.748 230.536C259.762 230.55 259.752 230.54 259.754 230.542L259.752 230.54L259.743 230.534L259.731 230.524L259.676 230.484C259.637 230.453 259.605 230.434 259.575 230.417C259.545 230.397 259.511 230.379 259.471 230.36C259.436 230.342 259.398 230.324 259.359 230.31C259.32 230.293 259.282 230.276 259.239 230.266C258.913 230.161 258.527 230.15 258.138 230.194C257.941 230.211 257.746 230.25 257.552 230.29C257.359 230.333 257.167 230.38 256.983 230.431C256.614 230.536 256.27 230.652 255.973 230.752C255.376 230.965 254.977 231.107 254.977 231.107C254.977 231.107 255.052 231.031 255.196 230.91C255.342 230.792 255.554 230.629 255.826 230.458C255.963 230.375 256.113 230.283 256.278 230.2C256.443 230.115 256.622 230.033 256.812 229.957C257.192 229.807 257.617 229.679 258.068 229.63C258.294 229.608 258.524 229.601 258.754 229.626C258.983 229.651 259.212 229.708 259.42 229.8C259.473 229.822 259.522 229.848 259.573 229.875C259.623 229.9 259.669 229.932 259.714 229.963C259.76 229.992 259.804 230.026 259.848 230.064C259.893 230.101 259.936 230.137 259.962 230.169L260.01 230.221L260.039 230.252L260.066 230.283C260.101 230.324 260.129 230.366 260.156 230.41C260.207 230.499 260.246 230.59 260.27 230.679C260.323 230.857 260.317 231.023 260.297 231.16C260.279 231.296 260.239 231.408 260.205 231.496C260.17 231.583 260.132 231.649 260.108 231.693C260.083 231.736 260.069 231.759 260.069 231.759Z" fill="#CF9166"/>
<path d="M232.7 219.201C232.7 219.201 231.563 214.898 228.342 216.033C225.121 217.167 225.64 225.121 230.732 225.475L232.7 219.201Z" fill="#EDAC7C"/>
<path d="M231.954 221.578L230.94 224.807C226.812 223.861 226.901 217.587 228.982 217.599C230.662 217.608 231.634 220.238 231.954 221.578Z" fill="#F7A588"/>
<path d="M227.892 218.44C227.892 218.44 227.908 218.42 227.94 218.381C227.971 218.341 228.017 218.287 228.077 218.22C228.198 218.089 228.392 217.909 228.649 217.83C228.712 217.811 228.779 217.802 228.85 217.799C228.884 217.799 228.919 217.796 228.953 217.801L228.981 217.803H228.982C228.961 217.803 228.978 217.803 228.975 217.803L228.978 217.803L228.987 217.804L229.003 217.806L229.071 217.817C229.119 217.821 229.156 217.832 229.19 217.841C229.225 217.847 229.263 217.858 229.303 217.874C229.341 217.885 229.379 217.9 229.417 217.917C229.456 217.933 229.495 217.949 229.533 217.971C229.838 218.126 230.119 218.392 230.365 218.698C230.489 218.85 230.602 219.015 230.711 219.181C230.817 219.348 230.919 219.516 231.013 219.683C231.199 220.018 231.361 220.342 231.501 220.623C231.773 221.197 231.954 221.579 231.954 221.579C231.954 221.579 231.955 221.47 231.938 221.284C231.921 221.099 231.885 220.832 231.812 220.519C231.774 220.363 231.732 220.192 231.674 220.016C231.617 219.84 231.551 219.655 231.469 219.467C231.307 219.094 231.096 218.703 230.812 218.348C230.67 218.173 230.509 218.005 230.328 217.861C230.149 217.717 229.948 217.595 229.735 217.514C229.682 217.491 229.628 217.475 229.574 217.46C229.52 217.441 229.467 217.429 229.41 217.421C229.359 217.409 229.304 217.402 229.245 217.398C229.187 217.392 229.132 217.388 229.089 217.392L229.021 217.393L228.978 217.395L228.937 217.399C228.884 217.402 228.831 217.413 228.781 217.425C228.683 217.453 228.592 217.489 228.511 217.534C228.349 217.624 228.236 217.745 228.154 217.854C228.069 217.964 228.019 218.071 227.981 218.159C227.943 218.246 227.924 218.319 227.91 218.367C227.898 218.415 227.892 218.44 227.892 218.44Z" fill="#CF9166"/>
<path d="M243.042 235.283L236.7 232.657C236.7 232.657 232.345 242.488 232.322 242.478C232.322 242.478 231.967 244.652 234.763 245.86C237.56 247.069 239.11 245.288 239.11 245.288C239.109 245.223 243.042 235.283 243.042 235.283Z" fill="#EDAC7C"/>
<path d="M241.004 240.562L234.232 238.209C234.232 238.209 232.72 241.67 232.696 241.66C232.696 241.66 232.435 243.397 235.231 244.607C238.027 245.815 239.486 244.319 239.486 244.319C239.485 244.255 241.004 240.562 241.004 240.562Z" fill="#CF9166"/>
<path d="M242.286 237.109L235.944 234.483C235.944 234.483 235.338 235.718 234.818 236.768C234.742 236.919 236.451 237.949 236.636 238.062C238.086 238.952 239.698 239.384 241.368 239.626C241.775 238.5 242.286 237.109 242.286 237.109Z" fill="#CF9166"/>
<path d="M258.895 218.948C253.331 218.948 248.668 216.107 245.857 211.876H230.527C230.244 212.799 229.987 213.804 229.763 214.918C228.078 223.311 230.278 234.232 238.743 237.736C247.208 241.24 257.146 235.515 260.419 227.607C261.613 224.723 261.801 221.663 261.16 218.768C260.412 218.885 259.655 218.948 258.895 218.948Z" fill="#3E150D"/>
<path d="M258.87 226.738C260.541 222.268 260.367 217.323 256.721 213.811C254.867 212.024 252.532 210.786 250.147 209.844C247.791 208.913 245.235 208.033 242.684 207.97C238.114 207.859 237.842 210.136 235.776 213.994C235.572 214.372 232.129 215.206 231.952 215.596C231.544 216.49 231.104 217.356 230.761 218.281C229.989 220.361 229.465 222.55 229.328 224.772C229.161 227.466 229.608 230.216 230.914 232.629C231.656 234.001 232.655 235.229 233.819 236.275C235.744 238 237.779 239.15 240.314 239.691C242.031 240.058 243.804 240.181 245.54 239.952C248.419 239.575 251.023 238.215 253.106 236.258C254.858 234.61 256.247 232.603 257.334 230.473C257.929 229.306 258.459 228.09 258.84 226.838C258.85 226.804 258.858 226.77 258.87 226.738Z" fill="#EDAC7C"/>
<path d="M247.553 225.732C246.986 226.963 247.444 228.384 248.576 228.903C249.708 229.423 251.085 228.845 251.653 227.613C252.221 226.381 251.763 224.962 250.631 224.442C249.498 223.922 248.12 224.499 247.553 225.732Z" fill="#CF9166"/>
<path d="M247.727 224.843C247.159 226.074 247.617 227.494 248.749 228.015C249.882 228.535 251.259 227.957 251.827 226.725C252.395 225.494 251.937 224.073 250.805 223.553C249.672 223.034 248.294 223.611 247.727 224.843Z" fill="black"/>
<path d="M248.709 224.562C248.503 225.008 248.705 225.539 249.159 225.746C249.613 225.955 250.148 225.764 250.354 225.317C250.559 224.871 250.357 224.341 249.903 224.132C249.449 223.923 248.914 224.115 248.709 224.562Z" fill="white"/>
<path d="M234.786 221.013C234.219 222.245 234.676 223.665 235.809 224.184C236.941 224.705 238.319 224.126 238.886 222.896C239.453 221.664 238.996 220.244 237.864 219.723C236.732 219.205 235.354 219.781 234.786 221.013Z" fill="#CF9166"/>
<path d="M235.026 220.491C234.458 221.723 234.917 223.143 236.049 223.663C237.181 224.183 238.559 223.605 239.126 222.373C239.694 221.142 239.236 219.721 238.104 219.202C236.972 218.682 235.593 219.26 235.026 220.491Z" fill="black"/>
<path d="M236.008 220.211C235.803 220.656 236.003 221.187 236.458 221.396C236.912 221.605 237.447 221.413 237.653 220.966C237.858 220.519 237.657 219.989 237.202 219.78C236.748 219.573 236.214 219.765 236.008 220.211Z" fill="white"/>
<path d="M242.87 221.322C242.87 221.322 242.129 226.15 240.773 225.714C238.144 224.873 237.346 230.643 241.707 229.052C243.353 228.452 244.196 221.544 244.196 221.544L242.87 221.322Z" fill="#F48470"/>
<path d="M234.444 218.411C234.444 218.411 234.526 218.343 234.69 218.253C234.773 218.21 234.875 218.153 234.996 218.107C235.116 218.054 235.255 218.007 235.411 217.961C235.566 217.916 235.737 217.877 235.919 217.846C236.102 217.818 236.298 217.79 236.502 217.786C236.704 217.771 236.913 217.781 237.128 217.794C237.343 217.804 237.557 217.848 237.773 217.877C237.983 217.925 238.196 217.975 238.4 218.035C238.602 218.103 238.799 218.176 238.986 218.251C239.17 218.337 239.344 218.426 239.507 218.511C239.672 218.599 239.813 218.702 239.947 218.789C240.078 218.88 240.2 218.962 240.297 219.052C240.395 219.137 240.479 219.215 240.548 219.278C240.683 219.404 240.755 219.485 240.755 219.485C240.755 219.485 240.648 219.459 240.472 219.401C240.384 219.373 240.277 219.34 240.158 219.298C240.042 219.252 239.905 219.214 239.757 219.167C239.61 219.124 239.458 219.062 239.29 219.016C239.122 218.969 238.949 218.918 238.77 218.862C238.589 218.815 238.403 218.772 238.215 218.718C238.025 218.677 237.833 218.636 237.64 218.595C237.542 218.578 237.445 218.562 237.349 218.546C237.252 218.53 237.157 218.508 237.061 218.499C236.965 218.489 236.869 218.475 236.776 218.462C236.681 218.446 236.589 218.445 236.495 218.434C236.311 218.412 236.132 218.405 235.961 218.393C235.875 218.385 235.793 218.39 235.712 218.385C235.63 218.383 235.552 218.377 235.476 218.379C235.325 218.378 235.184 218.377 235.061 218.381C234.934 218.382 234.826 218.39 234.733 218.392C234.645 218.4 234.569 218.399 234.522 218.406C234.47 218.41 234.444 218.411 234.444 218.411Z" fill="black"/>
<path d="M254.01 222.361C254.01 222.361 253.962 222.265 253.85 222.114C253.791 222.042 253.724 221.947 253.634 221.855C253.545 221.759 253.437 221.657 253.316 221.55C253.195 221.446 253.054 221.341 252.9 221.237C252.742 221.136 252.578 221.029 252.394 220.943C252.215 220.845 252.019 220.767 251.82 220.691C251.621 220.611 251.408 220.563 251.2 220.501C250.987 220.457 250.774 220.415 250.562 220.385C250.35 220.364 250.139 220.349 249.938 220.34C249.736 220.344 249.541 220.351 249.356 220.362C249.172 220.375 249.001 220.409 248.842 220.434C248.684 220.463 248.54 220.488 248.415 220.529C248.29 220.566 248.182 220.603 248.094 220.632C247.916 220.692 247.818 220.734 247.818 220.734C247.818 220.734 247.927 220.755 248.11 220.775C248.202 220.787 248.313 220.8 248.439 220.81C248.565 220.817 248.705 220.838 248.859 220.858C249.011 220.878 249.175 220.885 249.347 220.912C249.519 220.938 249.697 220.964 249.883 220.986C250.067 221.019 250.257 221.056 250.45 221.084C250.639 221.125 250.83 221.167 251.024 221.21C251.119 221.235 251.214 221.259 251.309 221.284C251.403 221.31 251.499 221.328 251.591 221.361C251.682 221.392 251.774 221.419 251.865 221.444C251.958 221.469 252.044 221.506 252.132 221.535C252.309 221.591 252.475 221.658 252.636 221.719C252.718 221.745 252.79 221.784 252.866 221.814C252.942 221.844 253.017 221.872 253.084 221.905C253.221 221.966 253.35 222.023 253.462 222.078C253.576 222.131 253.672 222.183 253.753 222.223C253.832 222.267 253.901 222.298 253.942 222.323C253.986 222.347 254.01 222.361 254.01 222.361Z" fill="black"/>
<path d="M259.04 226.973C259.04 226.973 259.963 225.361 260.86 223.151C259.917 225.387 259.04 226.973 259.04 226.973Z" fill="#CF9166"/>
<path d="M260.275 211.169C259.364 211.26 258.417 211.239 257.506 211.258C255.318 211.306 253.129 211.242 250.94 211.282C249.638 211.306 248.339 211.363 247.041 211.465C246.93 211.473 243.917 211.781 244.011 211.743C241.766 212.049 239.53 212.44 237.292 212.783C236.425 212.916 235.573 212.989 234.73 213.028C237.262 213.563 240.541 213.408 242.827 213.185C242.704 213.223 242.595 213.252 242.462 213.298C240.099 214.1 242.052 216.729 246.197 218.497C251.934 220.942 257.132 219.973 257.132 219.973C257.132 219.973 256.205 221.656 256.004 224.62C255.867 226.65 256.369 229.135 256.699 230.501C256.852 231.13 256.968 231.522 256.968 231.522L256.213 232.878C256.213 232.878 257.881 230.059 260.856 226.39C267.055 218.744 266.402 214.307 265.205 212.15C263.525 212.062 261.855 211.745 260.275 211.169Z" fill="#361710"/>
<path d="M259.872 220.896C259.872 220.896 247.537 221.428 226.946 213.24C217.093 209.322 233.211 209.043 233.211 209.043L252.276 208.607L259.872 220.896Z" fill="#2D2C44"/>
<path d="M262.392 224.492C262.392 224.492 261.671 222.971 259.873 220.897C257.803 218.508 254.309 215.384 248.854 213.007C238.666 208.567 233.21 209.044 233.21 209.044C233.21 209.044 234.04 203.061 241.927 200.083C244.991 198.925 248.147 198.615 251.163 199.107C256.227 199.931 260.901 203.009 264.104 208.124C269.189 216.246 262.392 224.492 262.392 224.492Z" fill="#2D2C44"/>
<path d="M259.872 220.896C257.804 218.507 254.309 215.384 248.855 213.007C238.666 208.566 233.211 209.044 233.211 209.044C233.211 209.044 234.04 203.061 241.927 200.082C244.991 198.925 248.147 198.615 251.164 199.107C253.773 200.239 256.24 202.003 258.406 204.391C264.205 210.785 260.831 218.922 259.872 220.896Z" fill="#A7A6BB"/>
<path d="M258.068 229.63C258.068 229.63 249.618 232.961 246.16 235.506C245.251 236.176 244.764 238.444 241.798 238.444C238.124 238.444 238.703 236.69 236.295 235.028C234.948 234.098 232.091 233.155 231.281 231.987C229.499 229.42 229.513 221.164 229.513 221.164C229.513 221.164 227.063 227.566 228.929 233.641C229.731 236.251 230.749 243.039 239.811 243.374C248.383 243.691 249.719 241.053 251.391 239.33C253.064 237.608 258.068 229.63 258.068 229.63Z" fill="#361710"/>
<path d="M199.993 223.771L203.406 225.469C207.031 227.271 208.508 231.672 206.706 235.297L204.965 238.797C203.162 242.422 198.762 243.9 195.137 242.097L191.724 240.399C188.099 238.597 186.622 234.197 188.424 230.572L190.165 227.071C191.968 223.446 196.368 221.969 199.993 223.771Z" fill="#FCC822"/>
<path d="M208.39 246.33L207.205 243.723C206.909 242.849 206.8 241.924 206.882 241.005L207.41 235.139C207.479 234.374 207.242 233.611 206.749 233.02L202.025 227.344C201.724 226.981 201.155 227.025 200.913 227.429C200.769 227.67 200.786 227.973 200.956 228.196L203.146 231.067L201.115 229.454C200.722 229.142 200.138 229.307 199.967 229.779C199.864 230.06 199.943 230.376 200.166 230.575L203.336 233.438L200.343 231.494C199.93 231.226 199.374 231.412 199.206 231.875C199.08 232.223 199.221 232.61 199.541 232.798L202.29 234.4L199.359 233.421C199.005 233.303 198.621 233.488 198.494 233.839C198.377 234.161 198.515 234.52 198.817 234.681L200.504 235.58C201.623 236.178 202.227 237.433 201.992 238.68L201.444 241.608C201.133 243.267 201.467 244.983 202.377 246.405L203.864 248.727L208.39 246.33Z" fill="#EDAC7C"/>
<path d="M245.514 250.785L225.234 261.644C223.888 262.366 222.214 261.93 221.389 260.646L209.533 242.369L200.708 247.177L217.784 275.106C219.015 276.929 221.418 277.54 223.37 276.525L251.399 261.931C254.176 260.485 255.47 257.22 254.439 254.265C253.164 250.61 248.926 248.958 245.514 250.785Z" fill="#A7A6BB"/>
<path d="M233.543 286.931C233.543 297.978 224.588 306.937 213.536 306.937L194.192 305.21L180.372 303.975V300.75C180.372 293.117 186.559 286.931 194.192 286.931H233.543Z" fill="#2D2C44"/>
<path d="M193.794 286.932V340.613L181.671 338.105L180.124 300.751C180.124 293.118 185.982 286.932 193.794 286.932Z" fill="#2D2C44"/>
<path d="M173.089 330.982C167.466 331.112 162.946 335.708 162.946 341.363C162.946 341.891 163.374 342.319 163.902 342.319H173.089V330.982Z" fill="white"/>
<path d="M180.459 321.463V330.02C180.459 330.547 180.031 330.976 179.504 330.976H173.333C173.015 330.976 172.702 330.99 172.391 331.018V339.348H194.29V321.463H180.459Z" fill="#361710"/>
<path d="M190.183 328.08C190.183 329.683 188.883 330.982 187.281 330.982C185.678 330.982 184.378 329.683 184.378 328.08C184.378 326.477 185.678 325.178 187.281 325.178C188.883 325.178 190.183 326.477 190.183 328.08Z" fill="white"/>
<path d="M163.557 337.85C163.163 338.947 162.946 340.129 162.946 341.362C162.946 341.89 163.374 342.317 163.902 342.317H193.335C193.863 342.317 194.291 341.89 194.291 341.362V337.85H163.557Z" fill="white"/>
<path d="M253.033 131.383C261.9 135.792 267.029 142.31 268.418 150.932C269.539 157.75 268.418 164.541 265.052 171.309C259.423 182.627 248.944 190.843 233.615 195.955C228.27 197.736 224.307 200.932 221.723 205.541C220.822 207.059 219.893 208.779 218.936 210.705C217.133 214.33 212.733 215.807 209.108 214.004L205.694 212.307C202.07 210.505 200.592 206.104 202.394 202.48C207.53 192.152 213.883 185.743 221.455 183.249C229.637 180.55 236.17 176.85 241.057 172.147C243.877 169.401 246.202 166.192 248.03 162.516C249.915 158.723 250.549 155.328 249.931 152.327C249.309 148.89 247.106 146.52 243.315 145.216C239.786 143.972 236.247 145.086 232.7 148.561C232.524 148.728 232.348 148.9 232.174 149.078C229.624 151.667 225.551 151.976 222.626 149.819L219.76 147.705C216.211 145.087 215.75 139.938 218.792 136.745C221.814 133.572 225.285 131.147 229.206 129.467C233.455 127.651 238.322 127.233 243.803 128.212C246.687 128.701 249.765 129.757 253.033 131.383Z" fill="#FCC822"/>
<path d="M238.829 235.846C239.069 235.846 239.275 235.683 239.335 235.452C239.573 234.529 240.406 233.845 241.403 233.845C242.402 233.845 243.233 234.529 243.472 235.452C243.531 235.683 243.738 235.846 243.977 235.846C244.312 235.846 244.577 235.532 244.495 235.206C244.146 233.82 242.899 232.792 241.403 232.792C239.908 232.792 238.661 233.82 238.312 235.206C238.23 235.532 238.494 235.846 238.829 235.846Z" fill="#F05B4E"/>
<path d="M248.117 234.921C247.629 232.605 245.99 230.692 243.792 229.855C243.379 229.698 242.909 229.772 242.582 230.068C242.218 230.395 241.822 230.746 241.403 230.746C240.963 230.746 240.548 230.377 240.169 230.034C239.846 229.743 239.388 229.661 238.978 229.809C236.998 230.52 235.421 232.109 234.738 234.135C234.527 234.762 234.834 235.488 235.468 235.678C236.089 235.864 236.702 235.516 236.889 234.934C237.523 232.956 239.418 231.574 241.589 231.7C243.76 231.825 245.483 233.416 245.886 235.453C245.987 235.965 246.416 236.343 246.936 236.374H246.936C247.7 236.374 248.274 235.668 248.117 234.921Z" fill="#361710"/>
<path d="M203.905 287.017C203.905 287.017 218.406 287.404 224.72 292.761C231.033 298.118 232.469 298.214 232.469 298.214C232.469 298.214 233.385 287.433 236.802 280.434C240.219 273.435 235.912 275.35 235.052 276.402C234.191 277.454 223.381 286.535 223.381 286.535L221.242 286.931L203.905 287.017Z" fill="#727293"/>
<path d="M289.889 180.976C289.889 180.976 288.934 184.64 290.506 185.476C292.08 186.312 296.101 186.751 296.141 185.476C296.181 184.201 297.296 182.967 295.305 182.091C293.313 181.215 290.964 180.976 290.964 180.976H289.889Z" fill="#C9BDBD"/>
<path d="M328.384 138.021C328.343 138.029 328.302 138.037 328.261 138.046C327.936 138.116 327.746 138.182 327.746 138.182V138.197C327.669 138.224 327.591 138.249 327.516 138.282C323.329 140.154 323.329 143.985 323.329 143.985L325.913 151.648C325.913 151.648 326.635 151.683 327.717 151.584L327.642 186.287L328.017 186.502C330.822 188.112 334.269 188.119 337.079 186.518L337.487 186.287C337.487 186.287 337.989 172.346 338.175 153.397C338.333 137.268 330.669 137.573 328.384 138.021Z" fill="#161616"/>
<path d="M322.286 143.492L323.834 141.451C324.03 141.192 324.393 141.131 324.66 141.315C326.351 142.477 331.863 146.694 331.111 151.772L322.286 143.492Z" fill="white"/>
<path d="M315.788 175.849C315.791 175.829 317.37 175.651 317.465 175.634C318.846 175.38 320.201 174.965 321.488 174.403C325.465 172.664 328.522 169.456 330.035 165.38C331.12 162.452 331.425 159.285 331.307 156.181C331.134 151.63 330.083 146.656 326.075 143.874C322.661 141.506 320.989 142.225 320.989 142.225C320.989 142.225 315.789 175.837 315.788 175.849Z" fill="#161616"/>
<path d="M316.717 170.018L309.764 169.576C309.764 169.576 308.807 180.447 308.781 180.445C308.781 180.445 309.154 182.649 312.236 182.893C315.318 183.135 316.223 180.916 316.223 180.916C316.2 180.854 316.717 170.018 316.717 170.018Z" fill="#F8D0B7"/>
<path d="M312.485 178.44C310.203 178.26 309.375 177.461 309.099 177.059C309.387 173.868 309.764 169.577 309.764 169.577L316.717 170.018C316.717 170.018 316.519 174.17 316.374 177.349C316.185 177.596 315.212 178.655 312.485 178.44Z" fill="#EFBDAC"/>
<path d="M313.743 173.494L306.79 173.052C306.79 173.052 306.614 174.438 306.459 175.615C306.435 175.786 308.414 176.215 308.629 176.263C310.314 176.64 312.004 176.528 313.687 176.211C313.709 174.997 313.743 173.494 313.743 173.494Z" fill="#CF9166"/>
<path d="M298.392 153.588C298.587 152.19 298.735 151.006 299.859 149.685C302.607 146.458 306.993 144.616 311.203 144.623C317.537 144.634 324.104 147.061 325.797 153.687C326.377 155.956 326.391 158.335 326.167 160.667C325.814 164.344 324.829 168.06 322.61 171.014C319.951 174.553 315.558 176.722 311.132 176.681C304.373 176.618 298.963 172.986 297.145 167.09C295.836 162.846 297.058 159.521 298.069 155.394C298.228 154.743 298.314 154.148 298.392 153.588Z" fill="#F8D0B7"/>
<path d="M328.523 161.435C328.538 161.455 328.558 161.483 328.558 161.483C328.558 161.483 328.555 161.453 328.548 161.399C328.539 161.346 328.528 161.264 328.494 161.163C328.459 161.064 328.412 160.939 328.319 160.807C328.227 160.675 328.096 160.525 327.89 160.401C327.788 160.338 327.668 160.283 327.536 160.236C327.469 160.215 327.4 160.195 327.327 160.181L327.272 160.17L327.211 160.161L327.116 160.147C327.058 160.136 326.98 160.13 326.899 160.127C326.817 160.121 326.738 160.119 326.663 160.123C326.585 160.123 326.506 160.126 326.428 160.135C326.35 160.143 326.271 160.15 326.194 160.165C326.104 160.18 326.017 160.205 325.929 160.227C325.936 159.633 325.916 159.038 325.857 158.449C326.627 158.34 327.49 158.415 328.446 158.816C332.474 160.508 330.48 168.232 324.123 168.553C324.287 168.212 324.435 167.865 324.573 167.514C327.978 166.527 329.231 163.173 328.523 161.435Z" fill="#F8D0B7"/>
<path d="M326.548 160.654C326.605 160.642 326.661 160.635 326.719 160.628C326.777 160.618 326.831 160.613 326.881 160.611C326.931 160.607 326.983 160.603 327.052 160.606L327.148 160.607L327.172 160.608H327.183H327.189C327.184 160.607 327.206 160.609 327.178 160.606H327.18L327.217 160.609C327.268 160.611 327.315 160.619 327.363 160.625C327.459 160.64 327.551 160.662 327.635 160.694C327.976 160.824 328.206 161.051 328.347 161.212C328.416 161.294 328.47 161.36 328.504 161.409C328.516 161.426 328.515 161.423 328.523 161.434C329.231 163.172 327.978 166.526 324.573 167.513C325.222 165.86 325.606 164.11 325.797 162.369C325.852 161.869 325.891 161.368 325.914 160.865C326.067 160.8 326.22 160.731 326.377 160.692C326.433 160.675 326.49 160.665 326.548 160.654Z" fill="#FFB7A1"/>
<path d="M326.429 160.135C326.507 160.125 326.585 160.123 326.662 160.122C326.738 160.119 326.816 160.12 326.899 160.126C326.981 160.13 327.059 160.136 327.117 160.147L327.21 160.161L327.272 160.17L327.327 160.181C327.399 160.195 327.47 160.215 327.536 160.236C327.669 160.282 327.788 160.338 327.89 160.401C328.096 160.525 328.227 160.674 328.319 160.807C328.413 160.939 328.459 161.063 328.493 161.163C328.527 161.264 328.54 161.346 328.548 161.399C328.554 161.453 328.557 161.482 328.557 161.482C328.557 161.482 328.538 161.455 328.523 161.435C328.515 161.424 328.516 161.426 328.504 161.409C328.471 161.36 328.416 161.295 328.347 161.213C328.206 161.052 327.976 160.825 327.635 160.695C327.551 160.663 327.458 160.64 327.364 160.625C327.315 160.62 327.268 160.612 327.217 160.61L327.18 160.606H327.178C327.205 160.61 327.183 160.607 327.189 160.608H327.183H327.171L327.148 160.607L327.052 160.606C326.982 160.603 326.93 160.607 326.881 160.611C326.83 160.613 326.777 160.618 326.718 160.628C326.661 160.635 326.604 160.642 326.547 160.654C326.491 160.665 326.433 160.675 326.377 160.692C326.22 160.732 326.067 160.801 325.913 160.866C325.923 160.654 325.927 160.441 325.929 160.227C326.018 160.205 326.104 160.18 326.193 160.165C326.271 160.15 326.35 160.143 326.429 160.135Z" fill="#FFA792"/>
<path d="M308.166 160.418C308.166 160.418 308.342 163.458 306.933 163.132C304.203 162.505 303.885 168.409 308.16 166.43C309.774 165.684 309.526 160.531 309.526 160.531L308.166 160.418Z" fill="#F48470"/>
<path d="M303.454 168.482C303.374 169.749 302.265 170.709 300.977 170.627C299.689 170.545 298.709 169.453 298.788 168.187C298.869 166.92 299.979 165.96 301.267 166.042C302.555 166.124 303.535 167.216 303.454 168.482Z" fill="#FFB7A1"/>
<path d="M320.278 168.067C320.197 169.335 319.088 170.294 317.798 170.212C316.512 170.131 315.532 169.04 315.611 167.773C315.693 166.507 316.801 165.547 318.088 165.628C319.377 165.709 320.358 166.803 320.278 168.067Z" fill="#FFB7A1"/>
<path d="M299.305 158.571C299.305 158.571 299.371 158.485 299.514 158.359C299.585 158.298 299.674 158.219 299.783 158.146C299.89 158.068 300.017 157.989 300.161 157.909C300.304 157.829 300.465 157.751 300.638 157.681C300.814 157.612 301 157.54 301.202 157.49C301.399 157.431 301.609 157.393 301.823 157.359C302.038 157.32 302.26 157.316 302.48 157.296C302.699 157.297 302.921 157.298 303.137 157.311C303.352 157.334 303.563 157.362 303.765 157.393C303.966 157.438 304.159 157.487 304.339 157.534C304.522 157.585 304.685 157.655 304.837 157.712C304.988 157.773 305.126 157.825 305.242 157.893C305.359 157.955 305.46 158.014 305.542 158.061C305.704 158.156 305.793 158.219 305.793 158.219C305.793 158.219 305.68 158.217 305.494 158.2C305.401 158.192 305.288 158.183 305.16 158.167C305.035 158.148 304.889 158.141 304.733 158.129C304.578 158.119 304.413 158.092 304.238 158.083C304.061 158.074 303.878 158.064 303.689 158.047C303.498 158.041 303.305 158.041 303.106 158.03C302.909 158.032 302.71 158.034 302.51 158.037C302.409 158.041 302.309 158.048 302.211 158.053C302.111 158.059 302.012 158.058 301.915 158.072C301.817 158.082 301.72 158.091 301.624 158.099C301.527 158.103 301.435 158.124 301.341 158.134C301.154 158.154 300.975 158.186 300.802 158.212C300.715 158.224 300.634 158.247 300.554 158.26C300.472 158.276 300.393 158.288 300.319 158.308C300.17 158.34 300.03 158.371 299.909 158.403C299.783 158.431 299.677 158.464 299.586 158.487C299.501 158.515 299.427 158.531 299.381 158.548C299.331 158.563 299.305 158.571 299.305 158.571Z" fill="#161616"/>
<path d="M317.765 157.561C317.765 157.561 317.696 157.477 317.55 157.355C317.475 157.297 317.386 157.22 317.275 157.15C317.164 157.076 317.033 157.001 316.889 156.925C316.744 156.851 316.581 156.779 316.403 156.714C316.224 156.652 316.036 156.585 315.834 156.543C315.635 156.488 315.424 156.458 315.209 156.43C314.993 156.399 314.772 156.402 314.552 156.389C314.33 156.396 314.111 156.406 313.895 156.427C313.68 156.455 313.47 156.49 313.268 156.529C313.069 156.58 312.879 156.635 312.699 156.688C312.521 156.744 312.359 156.82 312.209 156.881C312.059 156.947 311.923 157.006 311.81 157.075C311.695 157.141 311.596 157.204 311.517 157.253C311.355 157.354 311.27 157.419 311.27 157.419C311.27 157.419 311.381 157.415 311.568 157.391C311.66 157.381 311.773 157.368 311.9 157.348C312.026 157.324 312.169 157.313 312.325 157.294C312.479 157.28 312.644 157.249 312.821 157.233C312.997 157.219 313.178 157.202 313.367 157.179C313.556 157.169 313.752 157.16 313.949 157.143C314.146 157.138 314.345 157.135 314.545 157.129C314.645 157.132 314.745 157.134 314.845 157.136C314.943 157.139 315.042 157.136 315.141 157.147C315.238 157.155 315.336 157.16 315.432 157.163C315.529 157.166 315.623 157.183 315.716 157.19C315.905 157.203 316.084 157.23 316.258 157.252C316.344 157.258 316.426 157.28 316.507 157.29C316.589 157.303 316.669 157.314 316.743 157.329C316.893 157.358 317.034 157.383 317.157 157.412C317.283 157.436 317.39 157.465 317.479 157.485C317.568 157.511 317.642 157.524 317.69 157.54C317.739 157.552 317.765 157.561 317.765 157.561Z" fill="#050607"/>
<path d="M313.343 160.54C313.108 161.409 313.624 162.289 314.494 162.506C315.363 162.724 316.258 162.197 316.491 161.327C316.726 160.459 316.211 159.578 315.341 159.36C314.472 159.144 313.577 159.671 313.343 160.54Z" fill="#050607"/>
<path d="M313.998 160.25C313.914 160.564 314.127 160.89 314.476 160.976C314.825 161.065 315.176 160.88 315.261 160.565C315.346 160.251 315.131 159.925 314.783 159.839C314.434 159.75 314.083 159.935 313.998 160.25Z" fill="white"/>
<path d="M304.101 160.162C304.336 161.03 303.82 161.911 302.951 162.129C302.081 162.346 301.187 161.819 300.953 160.95C300.718 160.081 301.233 159.2 302.103 158.983C302.972 158.766 303.867 159.294 304.101 160.162Z" fill="#050607"/>
<path d="M303.446 159.872C303.531 160.186 303.317 160.512 302.968 160.599C302.619 160.687 302.268 160.503 302.183 160.187C302.098 159.873 302.313 159.547 302.661 159.461C303.009 159.372 303.362 159.557 303.446 159.872Z" fill="white"/>
<path d="M319.174 153.099C319.174 153.099 324.626 169.788 319.637 174.778C319.637 174.778 326.884 170.806 327.544 152.593L319.174 153.099Z" fill="#161616"/>
<path d="M326.524 156.577C328.396 156.276 328.527 148.289 328.243 147.201C327.266 143.457 321.922 141.157 318.659 139.933C313.519 138.007 307.058 137.69 302.409 141.029C299.918 142.819 298.695 145.338 297.533 148.084C297.318 148.59 294.997 154.973 294.983 154.973C294.984 154.973 312.682 155.874 312.542 155.867L314.215 155.952C314.215 155.952 325.207 156.788 326.524 156.577Z" fill="#161616"/>
<path d="M340.431 206.23H340.315C338.963 206.237 337.646 206.712 336.479 207.409C337.719 209.033 339.112 210.53 340.903 211.57C341.021 211.639 341.135 211.699 341.246 211.754C341.477 211.488 341.693 211.21 341.884 210.913C343.127 208.989 343.303 206.275 340.431 206.23Z" fill="#E8B79E"/>
<path d="M301.206 255.505C301.206 255.505 302.093 282.741 302.152 285.277C302.211 287.813 305.737 310.512 306.163 316.074C306.591 321.636 305.063 333.064 303.826 337.62L302.323 341.485C302.323 341.485 307.143 343.413 309.016 342.574C311.963 341.252 312.554 336.569 313.297 333.814C314.083 330.892 314.666 327.866 314.541 324.827C314.421 321.905 312.815 319.687 312.204 316.901C310.537 309.314 313.375 301.464 313.78 293.874C314.141 287.101 313.231 280.345 312.218 273.664C311.272 267.434 314.156 261.916 313.858 255.753C313.858 255.753 302.366 247.567 301.077 254.215" fill="#EFC8B1"/>
<path d="M303.294 338.984C303.22 339.319 304.204 339.675 304.427 339.775C306.05 340.511 308.625 341.221 309.961 339.573C311.594 337.567 311.969 334.087 312.661 331.664C313.443 328.923 314.258 325.77 314.015 322.89L313.901 321.533C313.901 321.533 317.719 323.866 317.479 327.105C317.239 330.345 313.981 335.776 313.778 339.164C313.652 341.252 312.637 343.328 310.931 344.568C308.325 346.463 303.824 346.328 301.037 344.899C300.007 344.37 299.194 341.914 300.544 341.293C302.227 340.52 304.949 332.61 304.665 332.343L303.825 337.619C303.825 337.619 303.294 338.981 303.294 338.984Z" fill="#122738"/>
<path d="M317.299 327.906C317.299 327.906 316.217 334.879 316.738 338.78L315.602 339.155L314.469 333.923L317.299 327.906Z" fill="#312E2F"/>
<path d="M327.05 327.906C327.05 327.906 326.136 338.344 326.658 342.247L324.998 342.293L324.221 333.923L327.05 327.906Z" fill="#0C1B26"/>
<path d="M309.843 255.505C309.843 255.505 311.845 282.741 311.904 285.277C311.962 287.813 315.488 310.512 315.915 316.074C316.342 321.636 314.815 333.064 313.577 337.62L312.075 341.485C312.075 341.485 316.895 343.413 318.768 342.574C321.714 341.252 322.306 336.569 323.048 333.814C323.835 330.892 324.418 327.866 324.293 324.827C324.173 321.905 322.567 319.687 321.954 316.901C320.289 309.314 323.126 301.464 323.531 293.874C323.893 287.101 322.982 280.345 321.969 273.664C321.023 267.434 323.908 261.916 323.609 255.753C323.609 255.753 311.003 247.567 309.714 254.215" fill="#F8D0B7"/>
<path d="M313.046 338.984C312.972 339.319 313.955 339.675 314.178 339.775C315.802 340.511 318.376 341.221 319.713 339.573C321.347 337.567 321.72 334.087 322.412 331.664C323.195 328.923 324.009 325.77 323.767 322.89L323.653 321.533C323.653 321.533 327.471 323.866 327.231 327.105C326.99 330.345 323.733 335.776 323.529 339.164C323.404 341.252 322.389 343.328 320.683 344.568C318.077 346.463 313.575 346.328 310.789 344.899C309.758 344.37 308.946 341.914 310.296 341.293C311.978 340.52 314.701 332.61 314.417 332.343L313.577 337.619C313.577 337.619 313.047 338.981 313.046 338.984Z" fill="#122738"/>
<path d="M322.584 196.985C323.532 192.508 326.847 187.93 327.05 186.925C321.824 181.704 317.16 179.85 316.062 179.508L309.565 179.537C307.826 180.244 306.074 180.915 304.33 181.608C303.674 181.867 303.062 182.004 302.649 182.574C302.143 183.273 301.885 184.469 301.551 185.279C300.638 187.492 299.7 189.739 299.249 192.11C298.958 193.642 299.32 195.291 299.94 196.985H322.584Z" fill="#F8D0B7"/>
<path d="M329.092 231.191C327.029 225.288 324.245 219.588 323.205 213.379C319.588 214.912 305.837 214.444 303.156 212.073C302.569 219.787 298.613 227.162 296.734 234.673C295.56 239.367 294.58 244.14 294.403 248.988C294.22 254.06 296.048 269.453 296.42 275.119C311.314 284.756 328.24 275.513 328.915 273.765C332.454 264.602 332.282 250.895 331.406 241.024C331.104 237.613 330.203 234.373 329.092 231.191Z" fill="#122738"/>
<path d="M296.734 234.673C296.656 234.983 296.582 235.296 296.506 235.607C301.799 238.44 322.428 240.144 330.221 234.761C329.887 233.56 329.504 232.371 329.092 231.191C327.11 225.521 324.468 220.035 323.34 214.109L320.186 214.037C316.927 214.414 312.23 214.321 308.523 213.773L304.194 213.674C304.194 213.674 302.634 225.495 297.611 231.594C297.289 232.619 296.991 233.645 296.734 234.673Z" fill="#0B1C28"/>
<path d="M309.088 190.792C309.075 190.569 309.047 190.353 309.018 190.135C309.013 190.099 309.007 190.064 309.001 190.027C308.62 187.475 307.16 185.34 305.284 183.917C302.927 182.212 300.418 180.744 297.948 179.217C292.988 176.207 288.735 173.784 283.718 170.869C282.162 167.998 280.583 165.146 278.939 162.339C278.109 160.936 277.279 159.534 276.345 158.203C275.294 156.977 274.528 155.557 273.778 154.095C272.263 151.201 270.957 148.114 268.873 145.616C267.734 144.306 266.495 143.113 265.198 141.989C265.315 142.192 269.241 149.038 268.838 155.898C268.838 155.898 268.83 155.9 268.825 155.902C269.296 156.179 269.763 156.471 270.234 156.747L270.743 157.055L270.997 157.209C271.091 157.258 271.172 157.316 271.17 157.368C271.301 157.642 271.432 158.106 271.548 158.491C272.016 160.115 272.498 161.744 273.069 163.328C274.206 166.489 275.631 169.535 277.605 172.137C278.591 173.428 279.699 174.639 280.964 175.626C282.207 176.631 283.468 177.611 284.739 178.578C287.282 180.509 289.129 181.852 291.79 183.615C294.454 185.374 297.174 187.053 300.013 188.533C302.88 189.957 305.812 191.298 309.103 191.798C309.106 191.741 309.099 191.686 309.1 191.628C309.109 191.469 309.115 191.18 309.088 190.792Z" fill="#EFC8B1"/>
<path d="M266.994 145.639C266.905 146.627 266.354 149.149 265.981 150.046C265.272 149.94 264.577 149.647 263.961 149.276C263.278 148.888 262.752 148.313 262.094 147.806C261.761 147.565 261.403 147.353 260.997 147.213C260.588 147.105 260.125 146.972 259.585 147.317C259.522 147.366 259.434 147.439 259.394 147.579C259.341 147.726 259.382 147.77 259.382 147.867C259.418 147.998 259.467 148.107 259.52 148.204C259.63 148.396 259.75 148.569 259.877 148.731C260.13 149.059 260.403 149.36 260.681 149.654C261.771 150.841 263 151.887 264.129 153.003L264.962 153.873C265.262 154.171 265.613 154.399 265.977 154.59C266.706 154.973 267.487 155.207 268.193 155.542C268.447 155.671 268.693 155.821 268.942 155.97V148.409C267.978 148.123 267.843 146.129 266.994 145.639Z" fill="#EFC8B1"/>
<path d="M291.815 175.568C291.815 175.568 293.135 177.711 292.717 182.011C292.299 186.312 290.506 185.476 290.506 185.476C290.506 185.476 294.987 188.88 299.466 191.27C303.947 193.66 303.767 182.25 303.767 182.25C303.767 182.25 292.287 174.143 291.815 175.568Z" fill="white"/>
<path d="M303.068 213.368C303.052 213.674 302.916 214.06 303.132 214.209C310.015 218.942 323.36 214.004 323.265 213.418C322.802 210.595 322.727 207.679 323.269 204.86C324.49 198.513 329.174 192.362 327.124 185.683C327.117 185.66 327.11 185.636 327.101 185.612C326.411 183.555 319.613 181.169 319.021 180.786C319.221 181.308 318.672 181.911 318.484 182.147C317.557 183.299 316.1 184.019 314.708 184.428C313.092 184.903 311.397 185.095 309.716 185.03C308.773 184.993 307.826 184.872 306.901 184.683C306.334 184.568 305.633 184.387 305.255 183.92C304.559 183.063 305.217 181.816 305.646 180.986C305.646 180.986 304.823 181.294 303.768 181.315C302.459 181.339 298.452 178.682 298.452 178.682C297.714 180.953 298.843 189.991 297.965 192.191C297.412 193.576 297.123 195.101 297.393 196.568C297.83 198.938 299.605 200.741 300.365 202.987C301.329 205.838 303.232 210.263 303.068 213.368Z" fill="white"/>
<path d="M302.812 210.648C302.812 210.648 300.882 225.3 294.391 230.397C289.531 234.212 319.961 238.547 329.226 231.457C329.62 231.154 329.678 230.579 329.356 230.2C328.845 229.599 328.059 228.352 327.049 225.766C325.172 220.958 322.98 211.105 322.98 211.105L302.812 210.648Z" fill="white"/>
<path d="M343.63 211.615C343.136 212.234 342.281 212.371 340.903 211.57C339.04 210.487 337.606 208.914 336.329 207.214C334.7 205.047 332.762 203.124 330.909 201.138C328.406 198.457 325.782 195.823 323.485 192.961C321.608 190.625 320.113 188.85 320.989 185.589C321.122 185.092 321.316 184.597 321.656 184.207C322.173 183.614 322.992 183.461 323.74 183.55C325.604 183.774 326.851 185.086 328.021 186.392C329.239 187.752 330.593 189.004 331.87 190.312C334.595 193.106 337.26 195.984 339.507 199.18C340.972 201.265 342.534 203.327 343.549 205.683C344.581 208.078 344.638 210.353 343.63 211.615Z" fill="#EFC8B1"/>
<path d="M340.431 206.23H340.315C338.963 206.237 337.646 206.712 336.479 207.409C337.719 209.033 339.112 210.53 340.903 211.57C341.021 211.639 341.135 211.699 341.246 211.754C341.477 211.488 341.693 211.21 341.884 210.913C343.127 208.989 343.303 206.275 340.431 206.23Z" fill="#E8B79E"/>
<path d="M341.714 206.835C341.676 206.84 341.638 206.846 341.6 206.851C340.095 207.079 338.72 207.886 337.586 208.906C335.175 211.073 333.191 213.92 331.032 216.349C329.35 218.24 327.668 220.336 325.809 222.171C325.925 222.295 326.024 222.434 326.098 222.596C326.824 224.203 327.095 225.201 328.095 226.655C329.905 223.403 337.482 218.694 341.696 214.2C342.529 213.311 343.326 212.365 343.831 211.257C344.782 209.174 344.563 206.462 341.714 206.835Z" fill="#EFC8B1"/>
<path d="M325.703 224.796C325.7 224.801 323.652 227.166 323.257 227.126C322.862 227.087 322.342 226.58 322.342 226.58L325.028 223.084C325.028 223.084 322.195 225.767 321.507 225.812C320.818 225.858 320.304 225.294 320.304 225.294L323.931 221.493C323.931 221.493 321.54 224.334 320.717 224.593C319.892 224.854 319.26 224.334 319.26 224.334L322.763 220.066L322.639 220.738C322.639 220.738 320.913 222.048 320.241 221.924C319.569 221.8 319.038 221.405 319.038 221.405C319.038 221.405 320.878 220.106 321.826 219.174C322.773 218.243 323.727 218.395 323.727 218.395C325.424 219.798 326.477 221.939 327.56 223.845C328.397 225.318 328.42 228.141 328.42 228.141C328.42 228.141 327.893 229.093 325.703 224.796Z" fill="#F8D0B7"/>
<path d="M299.987 152.931C299.987 152.931 296.976 158.724 297.145 167.09C297.145 167.09 291.511 159.719 298.863 149.188L299.987 152.931Z" fill="#161616"/>
<path d="M329.537 201.405C329.537 201.405 336.24 200.45 337.597 195.431C337.597 195.431 327.893 184.29 323.705 182.911C319.517 181.533 317.685 186.352 319.677 189.737C321.668 193.122 329.537 201.405 329.537 201.405Z" fill="white"/>
<path d="M298.05 191.932C298.05 191.932 298.341 190.476 299.505 188.864C300.67 187.251 298.334 188.246 296.073 189.293C296.073 189.293 298.066 190.404 298.063 191.121C298.061 191.524 298.05 191.932 298.05 191.932Z" fill="#E1E4E5"/>
<path d="M308.506 170.568C308.745 170.568 308.951 170.405 309.012 170.174C309.25 169.25 310.081 168.568 311.08 168.568C312.078 168.568 312.91 169.25 313.148 170.174C313.208 170.405 313.415 170.568 313.654 170.568C313.989 170.568 314.254 170.254 314.172 169.928C313.823 168.542 312.576 167.514 311.08 167.514C309.584 167.514 308.337 168.542 307.988 169.928C307.906 170.254 308.17 170.568 308.506 170.568Z" fill="#F05B4E"/>
<defs>
<filter id="filter0_d_2_773" x="178.338" y="111.659" width="39.9677" height="39.9674" filterUnits="userSpaceOnUse" color-interpolation-filters="sRGB">
<feFlood flood-opacity="0" result="BackgroundImageFix"/>
<feColorMatrix in="SourceAlpha" type="matrix" values="0 0 0 0 0 0 0 0 0 0 0 0 0 0 0 0 0 0 127 0" result="hardAlpha"/>
<feMorphology radius="6.96683" operator="erode" in="SourceAlpha" result="effect1_dropShadow_2_773"/>
<feOffset dy="10.4502"/>
<feGaussianBlur stdDeviation="11.6114"/>
<feColorMatrix type="matrix" values="0 0 0 0 0.243137 0 0 0 0 0.741176 0 0 0 0 1 0 0 0 0.45 0"/>
<feBlend mode="normal" in2="BackgroundImageFix" result="effect1_dropShadow_2_773"/>
<feBlend mode="normal" in="SourceGraphic" in2="effect1_dropShadow_2_773" result="shape"/>
</filter>
<filter id="filter1_d_2_773" x="380.141" y="207.59" width="39.9677" height="39.9674" filterUnits="userSpaceOnUse" color-interpolation-filters="sRGB">
<feFlood flood-opacity="0" result="BackgroundImageFix"/>
<feColorMatrix in="SourceAlpha" type="matrix" values="0 0 0 0 0 0 0 0 0 0 0 0 0 0 0 0 0 0 127 0" result="hardAlpha"/>
<feMorphology radius="6.96683" operator="erode" in="SourceAlpha" result="effect1_dropShadow_2_773"/>
<feOffset dy="10.4502"/>
<feGaussianBlur stdDeviation="11.6114"/>
<feColorMatrix type="matrix" values="0 0 0 0 0.243137 0 0 0 0 0.741176 0 0 0 0 1 0 0 0 0.45 0"/>
<feBlend mode="normal" in2="BackgroundImageFix" result="effect1_dropShadow_2_773"/>
<feBlend mode="normal" in="SourceGraphic" in2="effect1_dropShadow_2_773" result="shape"/>
</filter>
<filter id="filter2_d_2_773" x="300.612" y="283.142" width="39.9677" height="39.9674" filterUnits="userSpaceOnUse" color-interpolation-filters="sRGB">
<feFlood flood-opacity="0" result="BackgroundImageFix"/>
<feColorMatrix in="SourceAlpha" type="matrix" values="0 0 0 0 0 0 0 0 0 0 0 0 0 0 0 0 0 0 127 0" result="hardAlpha"/>
<feMorphology radius="6.96683" operator="erode" in="SourceAlpha" result="effect1_dropShadow_2_773"/>
<feOffset dy="10.4502"/>
<feGaussianBlur stdDeviation="11.6114"/>
<feColorMatrix type="matrix" values="0 0 0 0 0.243137 0 0 0 0 0.741176 0 0 0 0 1 0 0 0 0.45 0"/>
<feBlend mode="normal" in2="BackgroundImageFix" result="effect1_dropShadow_2_773"/>
<feBlend mode="normal" in="SourceGraphic" in2="effect1_dropShadow_2_773" result="shape"/>
</filter>
<filter id="filter3_d_2_773" x="158.953" y="277.177" width="47.9204" height="47.9206" filterUnits="userSpaceOnUse" color-interpolation-filters="sRGB">
<feFlood flood-opacity="0" result="BackgroundImageFix"/>
<feColorMatrix in="SourceAlpha" type="matrix" values="0 0 0 0 0 0 0 0 0 0 0 0 0 0 0 0 0 0 127 0" result="hardAlpha"/>
<feMorphology radius="6.96683" operator="erode" in="SourceAlpha" result="effect1_dropShadow_2_773"/>
<feOffset dy="10.4502"/>
<feGaussianBlur stdDeviation="11.6114"/>
<feColorMatrix type="matrix" values="0 0 0 0 0.243137 0 0 0 0 0.741176 0 0 0 0 1 0 0 0 0.45 0"/>
<feBlend mode="normal" in2="BackgroundImageFix" result="effect1_dropShadow_2_773"/>
<feBlend mode="normal" in="SourceGraphic" in2="effect1_dropShadow_2_773" result="shape"/>
</filter>
<filter id="filter4_d_2_773" x="296.139" y="254.313" width="41.4588" height="41.4586" filterUnits="userSpaceOnUse" color-interpolation-filters="sRGB">
<feFlood flood-opacity="0" result="BackgroundImageFix"/>
<feColorMatrix in="SourceAlpha" type="matrix" values="0 0 0 0 0 0 0 0 0 0 0 0 0 0 0 0 0 0 127 0" result="hardAlpha"/>
<feMorphology radius="6.96683" operator="erode" in="SourceAlpha" result="effect1_dropShadow_2_773"/>
<feOffset dy="10.4502"/>
<feGaussianBlur stdDeviation="11.6114"/>
<feColorMatrix type="matrix" values="0 0 0 0 0.243137 0 0 0 0 0.741176 0 0 0 0 1 0 0 0 0.45 0"/>
<feBlend mode="normal" in2="BackgroundImageFix" result="effect1_dropShadow_2_773"/>
<feBlend mode="normal" in="SourceGraphic" in2="effect1_dropShadow_2_773" result="shape"/>
</filter>
<filter id="filter5_d_2_773" x="56.5606" y="253.815" width="41.4588" height="41.4586" filterUnits="userSpaceOnUse" color-interpolation-filters="sRGB">
<feFlood flood-opacity="0" result="BackgroundImageFix"/>
<feColorMatrix in="SourceAlpha" type="matrix" values="0 0 0 0 0 0 0 0 0 0 0 0 0 0 0 0 0 0 127 0" result="hardAlpha"/>
<feMorphology radius="6.96683" operator="erode" in="SourceAlpha" result="effect1_dropShadow_2_773"/>
<feOffset dy="10.4502"/>
<feGaussianBlur stdDeviation="11.6114"/>
<feColorMatrix type="matrix" values="0 0 0 0 0.243137 0 0 0 0 0.741176 0 0 0 0 1 0 0 0 0.45 0"/>
<feBlend mode="normal" in2="BackgroundImageFix" result="effect1_dropShadow_2_773"/>
<feBlend mode="normal" in="SourceGraphic" in2="effect1_dropShadow_2_773" result="shape"/>
</filter>
<filter id="filter6_d_2_773" x="248.919" y="294.574" width="36.9854" height="36.9855" filterUnits="userSpaceOnUse" color-interpolation-filters="sRGB">
<feFlood flood-opacity="0" result="BackgroundImageFix"/>
<feColorMatrix in="SourceAlpha" type="matrix" values="0 0 0 0 0 0 0 0 0 0 0 0 0 0 0 0 0 0 127 0" result="hardAlpha"/>
<feMorphology radius="6.96683" operator="erode" in="SourceAlpha" result="effect1_dropShadow_2_773"/>
<feOffset dy="10.4502"/>
<feGaussianBlur stdDeviation="11.6114"/>
<feColorMatrix type="matrix" values="0 0 0 0 0.243137 0 0 0 0 0.741176 0 0 0 0 1 0 0 0 0.45 0"/>
<feBlend mode="normal" in2="BackgroundImageFix" result="effect1_dropShadow_2_773"/>
<feBlend mode="normal" in="SourceGraphic" in2="effect1_dropShadow_2_773" result="shape"/>
</filter>
<linearGradient id="paint0_linear_2_773" x1="194.594" y1="117.465" x2="202.676" y2="118.221" gradientUnits="userSpaceOnUse">
<stop stop-color="#FCC822"/>
<stop offset="1" stop-color="#FFDD72"/>
</linearGradient>
<linearGradient id="paint1_linear_2_773" x1="396.397" y1="213.396" x2="404.479" y2="214.151" gradientUnits="userSpaceOnUse">
<stop stop-color="#FCC822"/>
<stop offset="1" stop-color="#FFDD72"/>
</linearGradient>
<linearGradient id="paint2_linear_2_773" x1="316.868" y1="288.948" x2="324.951" y2="289.704" gradientUnits="userSpaceOnUse">
<stop stop-color="#FCC822"/>
<stop offset="1" stop-color="#FFDD72"/>
</linearGradient>
<linearGradient id="paint3_linear_2_773" x1="175.209" y1="282.982" x2="191.912" y2="284.545" gradientUnits="userSpaceOnUse">
<stop stop-color="#FCC822"/>
<stop offset="1" stop-color="#FFDD72"/>
</linearGradient>
<linearGradient id="paint4_linear_2_773" x1="312.395" y1="260.119" x2="322.094" y2="261.026" gradientUnits="userSpaceOnUse">
<stop stop-color="#FCC822"/>
<stop offset="1" stop-color="#FFDD72"/>
</linearGradient>
<linearGradient id="paint5_linear_2_773" x1="72.8165" y1="259.621" x2="82.5154" y2="260.528" gradientUnits="userSpaceOnUse">
<stop stop-color="#FCC822"/>
<stop offset="1" stop-color="#FFDD72"/>
</linearGradient>
<linearGradient id="paint6_linear_2_773" x1="265.175" y1="300.38" x2="270.024" y2="300.833" gradientUnits="userSpaceOnUse">
<stop stop-color="#FDC68A"/>
<stop offset="1" stop-color="#FCC822"/>
</linearGradient>
<linearGradient id="paint7_linear_2_773" x1="274.122" y1="183.076" x2="274.122" y2="189.04" gradientUnits="userSpaceOnUse">
<stop stop-color="#FCC822"/>
<stop offset="1" stop-color="#FFDD72"/>
</linearGradient>
<linearGradient id="paint8_linear_2_773" x1="289.034" y1="201.806" x2="289.034" y2="207.771" gradientUnits="userSpaceOnUse">
<stop stop-color="#FCC822"/>
<stop offset="1" stop-color="#FFDD72"/>
</linearGradient>
<linearGradient id="paint9_linear_2_773" x1="298.478" y1="203.298" x2="298.478" y2="206.28" gradientUnits="userSpaceOnUse">
<stop stop-color="#FCC822"/>
<stop offset="1" stop-color="#FFDD72"/>
</linearGradient>
<linearGradient id="paint10_linear_2_773" x1="295.711" y1="209.975" x2="295.711" y2="212.957" gradientUnits="userSpaceOnUse">
<stop stop-color="#FCC822"/>
<stop offset="1" stop-color="#FFDD72"/>
</linearGradient>
<linearGradient id="paint11_linear_2_773" x1="288.873" y1="212.741" x2="288.873" y2="215.724" gradientUnits="userSpaceOnUse">
<stop stop-color="#FCC822"/>
<stop offset="1" stop-color="#FFDD72"/>
</linearGradient>
<linearGradient id="paint12_linear_2_773" x1="282.196" y1="209.976" x2="282.196" y2="212.958" gradientUnits="userSpaceOnUse">
<stop stop-color="#FCC822"/>
<stop offset="1" stop-color="#FFDD72"/>
</linearGradient>
<linearGradient id="paint13_linear_2_773" x1="279.59" y1="203.298" x2="279.59" y2="206.28" gradientUnits="userSpaceOnUse">
<stop stop-color="#FCC822"/>
<stop offset="1" stop-color="#FFDD72"/>
</linearGradient>
<linearGradient id="paint14_linear_2_773" x1="282.356" y1="196.62" x2="282.356" y2="199.602" gradientUnits="userSpaceOnUse">
<stop stop-color="#FCC822"/>
<stop offset="1" stop-color="#FFDD72"/>
</linearGradient>
<linearGradient id="paint15_linear_2_773" x1="288.873" y1="193.854" x2="288.873" y2="196.836" gradientUnits="userSpaceOnUse">
<stop stop-color="#FCC822"/>
<stop offset="1" stop-color="#FFDD72"/>
</linearGradient>
<linearGradient id="paint16_linear_2_773" x1="295.551" y1="196.619" x2="295.551" y2="199.602" gradientUnits="userSpaceOnUse">
<stop stop-color="#FCC822"/>
<stop offset="1" stop-color="#FFDD72"/>
</linearGradient>
</defs>
</svg>
